<svg width="703" height="287" viewBox="0 0 703 287" fill="none" xmlns="http://www.w3.org/2000/svg">
<ellipse cx="368.858" cy="6.52273" rx="6.07531" ry="6.52273" fill="url(#paint0_linear_34_1430)" fill-opacity="0.8"/>
<ellipse cx="368.858" cy="45.659" rx="6.07531" ry="6.52273" fill="url(#paint1_linear_34_1430)" fill-opacity="0.8"/>
<ellipse cx="368.858" cy="84.7957" rx="6.07531" ry="6.52273" fill="url(#paint2_linear_34_1430)" fill-opacity="0.8"/>
<ellipse cx="368.858" cy="123.932" rx="6.07531" ry="6.52273" fill="url(#paint3_linear_34_1430)" fill-opacity="0.8"/>
<ellipse cx="368.858" cy="163.068" rx="6.07531" ry="6.52273" fill="url(#paint4_linear_34_1430)" fill-opacity="0.8"/>
<ellipse cx="368.858" cy="202.204" rx="6.07531" ry="6.52273" fill="url(#paint5_linear_34_1430)" fill-opacity="0.8"/>
<ellipse cx="368.858" cy="241.341" rx="6.07531" ry="6.52273" fill="url(#paint6_linear_34_1430)" fill-opacity="0.8"/>
<ellipse cx="368.858" cy="280.477" rx="6.07531" ry="6.52273" fill="url(#paint7_linear_34_1430)" fill-opacity="0.8"/>
<ellipse cx="405.31" cy="6.52273" rx="6.07531" ry="6.52273" fill="url(#paint8_linear_34_1430)" fill-opacity="0.8"/>
<ellipse cx="405.31" cy="45.659" rx="6.07531" ry="6.52273" fill="url(#paint9_linear_34_1430)" fill-opacity="0.8"/>
<ellipse cx="405.31" cy="84.7957" rx="6.07531" ry="6.52273" fill="url(#paint10_linear_34_1430)" fill-opacity="0.8"/>
<ellipse cx="405.31" cy="123.932" rx="6.07531" ry="6.52273" fill="url(#paint11_linear_34_1430)" fill-opacity="0.8"/>
<ellipse cx="405.31" cy="163.068" rx="6.07531" ry="6.52273" fill="url(#paint12_linear_34_1430)" fill-opacity="0.8"/>
<ellipse cx="405.31" cy="202.204" rx="6.07531" ry="6.52273" fill="url(#paint13_linear_34_1430)" fill-opacity="0.8"/>
<ellipse cx="405.31" cy="241.341" rx="6.07531" ry="6.52273" fill="url(#paint14_linear_34_1430)" fill-opacity="0.8"/>
<ellipse cx="405.31" cy="280.477" rx="6.07531" ry="6.52273" fill="url(#paint15_linear_34_1430)" fill-opacity="0.8"/>
<ellipse cx="441.762" cy="6.52273" rx="6.07531" ry="6.52273" fill="url(#paint16_linear_34_1430)" fill-opacity="0.9"/>
<ellipse cx="441.762" cy="45.659" rx="6.07531" ry="6.52273" fill="url(#paint17_linear_34_1430)" fill-opacity="0.9"/>
<ellipse cx="441.762" cy="84.7957" rx="6.07531" ry="6.52273" fill="url(#paint18_linear_34_1430)" fill-opacity="0.9"/>
<ellipse cx="441.762" cy="123.932" rx="6.07531" ry="6.52273" fill="url(#paint19_linear_34_1430)" fill-opacity="0.9"/>
<ellipse cx="441.762" cy="163.068" rx="6.07531" ry="6.52273" fill="url(#paint20_linear_34_1430)" fill-opacity="0.9"/>
<ellipse cx="441.762" cy="202.204" rx="6.07531" ry="6.52273" fill="url(#paint21_linear_34_1430)" fill-opacity="0.9"/>
<ellipse cx="441.762" cy="241.341" rx="6.07531" ry="6.52273" fill="url(#paint22_linear_34_1430)" fill-opacity="0.9"/>
<ellipse cx="441.762" cy="280.477" rx="6.07531" ry="6.52273" fill="url(#paint23_linear_34_1430)" fill-opacity="0.9"/>
<ellipse cx="478.214" cy="6.52273" rx="6.07531" ry="6.52273" fill="url(#paint24_linear_34_1430)"/>
<ellipse cx="478.214" cy="45.659" rx="6.07531" ry="6.52273" fill="url(#paint25_linear_34_1430)"/>
<ellipse cx="478.214" cy="84.7957" rx="6.07531" ry="6.52273" fill="url(#paint26_linear_34_1430)"/>
<ellipse cx="478.214" cy="123.932" rx="6.07531" ry="6.52273" fill="url(#paint27_linear_34_1430)"/>
<ellipse cx="478.214" cy="163.068" rx="6.07531" ry="6.52273" fill="url(#paint28_linear_34_1430)"/>
<ellipse cx="478.214" cy="202.204" rx="6.07531" ry="6.52273" fill="url(#paint29_linear_34_1430)"/>
<ellipse cx="478.214" cy="241.341" rx="6.07531" ry="6.52273" fill="url(#paint30_linear_34_1430)"/>
<ellipse cx="478.214" cy="280.477" rx="6.07531" ry="6.52273" fill="url(#paint31_linear_34_1430)"/>
<ellipse cx="514.665" cy="6.52273" rx="6.07531" ry="6.52273" fill="url(#paint32_linear_34_1430)"/>
<ellipse cx="514.665" cy="45.659" rx="6.07531" ry="6.52273" fill="url(#paint33_linear_34_1430)"/>
<ellipse cx="514.665" cy="84.7957" rx="6.07531" ry="6.52273" fill="url(#paint34_linear_34_1430)"/>
<ellipse cx="514.665" cy="123.932" rx="6.07531" ry="6.52273" fill="url(#paint35_linear_34_1430)"/>
<ellipse cx="514.665" cy="163.068" rx="6.07531" ry="6.52273" fill="url(#paint36_linear_34_1430)"/>
<ellipse cx="514.665" cy="202.204" rx="6.07531" ry="6.52273" fill="url(#paint37_linear_34_1430)"/>
<ellipse cx="514.665" cy="241.341" rx="6.07531" ry="6.52273" fill="url(#paint38_linear_34_1430)"/>
<ellipse cx="514.665" cy="280.477" rx="6.07531" ry="6.52273" fill="url(#paint39_linear_34_1430)"/>
<ellipse cx="551.117" cy="6.52273" rx="6.07531" ry="6.52273" fill="url(#paint40_linear_34_1430)"/>
<ellipse cx="551.117" cy="45.659" rx="6.07531" ry="6.52273" fill="url(#paint41_linear_34_1430)"/>
<ellipse cx="551.117" cy="84.7957" rx="6.07531" ry="6.52273" fill="url(#paint42_linear_34_1430)"/>
<ellipse cx="551.117" cy="123.932" rx="6.07531" ry="6.52273" fill="url(#paint43_linear_34_1430)"/>
<ellipse cx="551.117" cy="163.068" rx="6.07531" ry="6.52273" fill="url(#paint44_linear_34_1430)"/>
<ellipse cx="551.117" cy="202.204" rx="6.07531" ry="6.52273" fill="url(#paint45_linear_34_1430)"/>
<ellipse cx="551.117" cy="241.341" rx="6.07531" ry="6.52273" fill="url(#paint46_linear_34_1430)"/>
<ellipse cx="551.117" cy="280.477" rx="6.07531" ry="6.52273" fill="url(#paint47_linear_34_1430)"/>
<ellipse cx="587.569" cy="6.52273" rx="6.07531" ry="6.52273" fill="url(#paint48_linear_34_1430)"/>
<ellipse cx="587.569" cy="45.659" rx="6.07531" ry="6.52273" fill="url(#paint49_linear_34_1430)"/>
<ellipse cx="587.569" cy="84.7957" rx="6.07531" ry="6.52273" fill="url(#paint50_linear_34_1430)"/>
<ellipse cx="587.569" cy="123.932" rx="6.07531" ry="6.52273" fill="url(#paint51_linear_34_1430)"/>
<ellipse cx="587.569" cy="163.068" rx="6.07531" ry="6.52273" fill="url(#paint52_linear_34_1430)"/>
<ellipse cx="587.569" cy="202.204" rx="6.07531" ry="6.52273" fill="url(#paint53_linear_34_1430)"/>
<ellipse cx="587.569" cy="241.341" rx="6.07531" ry="6.52273" fill="url(#paint54_linear_34_1430)"/>
<ellipse cx="587.569" cy="280.477" rx="6.07531" ry="6.52273" fill="url(#paint55_linear_34_1430)"/>
<ellipse cx="624.021" cy="6.52273" rx="6.07531" ry="6.52273" fill="url(#paint56_linear_34_1430)"/>
<ellipse cx="624.021" cy="45.659" rx="6.07531" ry="6.52273" fill="url(#paint57_linear_34_1430)"/>
<ellipse cx="624.021" cy="84.7957" rx="6.07531" ry="6.52273" fill="url(#paint58_linear_34_1430)"/>
<ellipse cx="624.021" cy="123.932" rx="6.07531" ry="6.52273" fill="url(#paint59_linear_34_1430)"/>
<ellipse cx="624.021" cy="163.068" rx="6.07531" ry="6.52273" fill="url(#paint60_linear_34_1430)"/>
<ellipse cx="624.021" cy="202.204" rx="6.07531" ry="6.52273" fill="url(#paint61_linear_34_1430)"/>
<ellipse cx="624.021" cy="241.341" rx="6.07531" ry="6.52273" fill="url(#paint62_linear_34_1430)"/>
<ellipse cx="624.021" cy="280.477" rx="6.07531" ry="6.52273" fill="url(#paint63_linear_34_1430)"/>
<ellipse cx="660.473" cy="6.52273" rx="6.07531" ry="6.52273" fill="url(#paint64_linear_34_1430)"/>
<ellipse cx="660.473" cy="45.659" rx="6.07531" ry="6.52273" fill="url(#paint65_linear_34_1430)"/>
<ellipse cx="660.473" cy="84.7957" rx="6.07531" ry="6.52273" fill="url(#paint66_linear_34_1430)"/>
<ellipse cx="660.473" cy="123.932" rx="6.07531" ry="6.52273" fill="url(#paint67_linear_34_1430)"/>
<ellipse cx="660.473" cy="163.068" rx="6.07531" ry="6.52273" fill="url(#paint68_linear_34_1430)"/>
<ellipse cx="660.473" cy="202.204" rx="6.07531" ry="6.52273" fill="url(#paint69_linear_34_1430)"/>
<ellipse cx="660.473" cy="241.341" rx="6.07531" ry="6.52273" fill="url(#paint70_linear_34_1430)"/>
<ellipse cx="660.473" cy="280.477" rx="6.07531" ry="6.52273" fill="url(#paint71_linear_34_1430)"/>
<ellipse cx="696.925" cy="6.52273" rx="6.07531" ry="6.52273" fill="url(#paint72_linear_34_1430)"/>
<ellipse cx="696.925" cy="45.659" rx="6.07531" ry="6.52273" fill="url(#paint73_linear_34_1430)"/>
<ellipse cx="696.925" cy="84.7957" rx="6.07531" ry="6.52273" fill="url(#paint74_linear_34_1430)"/>
<ellipse cx="696.925" cy="123.932" rx="6.07531" ry="6.52273" fill="url(#paint75_linear_34_1430)"/>
<ellipse cx="696.925" cy="163.068" rx="6.07531" ry="6.52273" fill="url(#paint76_linear_34_1430)"/>
<ellipse cx="696.925" cy="202.204" rx="6.07531" ry="6.52273" fill="url(#paint77_linear_34_1430)"/>
<ellipse cx="696.925" cy="241.341" rx="6.07531" ry="6.52273" fill="url(#paint78_linear_34_1430)"/>
<ellipse cx="696.925" cy="280.477" rx="6.07531" ry="6.52273" fill="url(#paint79_linear_34_1430)"/>
<ellipse cx="6.07531" cy="6.52273" rx="6.07531" ry="6.52273" fill="white" fill-opacity="0.2"/>
<ellipse cx="6.07531" cy="45.659" rx="6.07531" ry="6.52273" fill="white" fill-opacity="0.2"/>
<ellipse cx="6.07531" cy="84.7957" rx="6.07531" ry="6.52273" fill="white" fill-opacity="0.2"/>
<ellipse cx="6.07531" cy="123.932" rx="6.07531" ry="6.52273" fill="white" fill-opacity="0.2"/>
<ellipse cx="6.07531" cy="163.068" rx="6.07531" ry="6.52273" fill="white" fill-opacity="0.2"/>
<ellipse cx="6.07531" cy="202.204" rx="6.07531" ry="6.52273" fill="white" fill-opacity="0.2"/>
<ellipse cx="6.07531" cy="241.341" rx="6.07531" ry="6.52273" fill="white" fill-opacity="0.2"/>
<ellipse cx="6.07531" cy="280.477" rx="6.07531" ry="6.52273" fill="white" fill-opacity="0.2"/>
<ellipse cx="42.5272" cy="6.52273" rx="6.07531" ry="6.52273" fill="white" fill-opacity="0.3"/>
<ellipse cx="42.5272" cy="45.659" rx="6.07531" ry="6.52273" fill="white" fill-opacity="0.3"/>
<ellipse cx="42.5272" cy="84.7957" rx="6.07531" ry="6.52273" fill="white" fill-opacity="0.3"/>
<ellipse cx="42.5272" cy="123.932" rx="6.07531" ry="6.52273" fill="white" fill-opacity="0.3"/>
<ellipse cx="42.5272" cy="163.068" rx="6.07531" ry="6.52273" fill="white" fill-opacity="0.3"/>
<ellipse cx="42.5272" cy="202.204" rx="6.07531" ry="6.52273" fill="white" fill-opacity="0.3"/>
<ellipse cx="42.5272" cy="241.341" rx="6.07531" ry="6.52273" fill="white" fill-opacity="0.3"/>
<ellipse cx="42.5272" cy="280.477" rx="6.07531" ry="6.52273" fill="white" fill-opacity="0.3"/>
<ellipse cx="78.979" cy="6.52273" rx="6.07531" ry="6.52273" fill="white" fill-opacity="0.4"/>
<ellipse cx="78.979" cy="45.659" rx="6.07531" ry="6.52273" fill="white" fill-opacity="0.4"/>
<ellipse cx="78.979" cy="84.7957" rx="6.07531" ry="6.52273" fill="white" fill-opacity="0.4"/>
<ellipse cx="78.979" cy="123.932" rx="6.07531" ry="6.52273" fill="white" fill-opacity="0.4"/>
<ellipse cx="78.979" cy="163.068" rx="6.07531" ry="6.52273" fill="white" fill-opacity="0.4"/>
<ellipse cx="78.979" cy="202.204" rx="6.07531" ry="6.52273" fill="white" fill-opacity="0.4"/>
<ellipse cx="78.979" cy="241.341" rx="6.07531" ry="6.52273" fill="white" fill-opacity="0.4"/>
<ellipse cx="78.979" cy="280.477" rx="6.07531" ry="6.52273" fill="white" fill-opacity="0.4"/>
<ellipse cx="115.431" cy="6.52273" rx="6.07531" ry="6.52273" fill="url(#paint80_linear_34_1430)" fill-opacity="0.4"/>
<ellipse cx="115.431" cy="45.659" rx="6.07531" ry="6.52273" fill="url(#paint81_linear_34_1430)" fill-opacity="0.4"/>
<ellipse cx="115.431" cy="84.7957" rx="6.07531" ry="6.52273" fill="url(#paint82_linear_34_1430)" fill-opacity="0.4"/>
<ellipse cx="115.431" cy="123.932" rx="6.07531" ry="6.52273" fill="url(#paint83_linear_34_1430)" fill-opacity="0.4"/>
<ellipse cx="115.431" cy="163.068" rx="6.07531" ry="6.52273" fill="url(#paint84_linear_34_1430)" fill-opacity="0.4"/>
<ellipse cx="115.431" cy="202.204" rx="6.07531" ry="6.52273" fill="url(#paint85_linear_34_1430)" fill-opacity="0.4"/>
<ellipse cx="115.431" cy="241.341" rx="6.07531" ry="6.52273" fill="url(#paint86_linear_34_1430)" fill-opacity="0.4"/>
<ellipse cx="115.431" cy="280.477" rx="6.07531" ry="6.52273" fill="url(#paint87_linear_34_1430)" fill-opacity="0.4"/>
<ellipse cx="151.883" cy="6.52273" rx="6.07531" ry="6.52273" fill="url(#paint88_linear_34_1430)" fill-opacity="0.5"/>
<ellipse cx="151.883" cy="45.659" rx="6.07531" ry="6.52273" fill="url(#paint89_linear_34_1430)" fill-opacity="0.5"/>
<ellipse cx="151.883" cy="84.7957" rx="6.07531" ry="6.52273" fill="url(#paint90_linear_34_1430)" fill-opacity="0.5"/>
<ellipse cx="151.883" cy="123.932" rx="6.07531" ry="6.52273" fill="url(#paint91_linear_34_1430)" fill-opacity="0.5"/>
<ellipse cx="151.883" cy="163.068" rx="6.07531" ry="6.52273" fill="url(#paint92_linear_34_1430)" fill-opacity="0.5"/>
<ellipse cx="151.883" cy="202.204" rx="6.07531" ry="6.52273" fill="url(#paint93_linear_34_1430)" fill-opacity="0.5"/>
<ellipse cx="151.883" cy="241.341" rx="6.07531" ry="6.52273" fill="url(#paint94_linear_34_1430)" fill-opacity="0.5"/>
<ellipse cx="151.883" cy="280.477" rx="6.07531" ry="6.52273" fill="url(#paint95_linear_34_1430)" fill-opacity="0.5"/>
<ellipse cx="188.335" cy="6.52273" rx="6.07531" ry="6.52273" fill="url(#paint96_linear_34_1430)" fill-opacity="0.5"/>
<ellipse cx="188.335" cy="45.659" rx="6.07531" ry="6.52273" fill="url(#paint97_linear_34_1430)" fill-opacity="0.5"/>
<ellipse cx="188.335" cy="84.7957" rx="6.07531" ry="6.52273" fill="url(#paint98_linear_34_1430)" fill-opacity="0.5"/>
<ellipse cx="188.335" cy="123.932" rx="6.07531" ry="6.52273" fill="url(#paint99_linear_34_1430)" fill-opacity="0.5"/>
<ellipse cx="188.335" cy="163.068" rx="6.07531" ry="6.52273" fill="url(#paint100_linear_34_1430)" fill-opacity="0.5"/>
<ellipse cx="188.335" cy="202.204" rx="6.07531" ry="6.52273" fill="url(#paint101_linear_34_1430)" fill-opacity="0.5"/>
<ellipse cx="188.335" cy="241.341" rx="6.07531" ry="6.52273" fill="url(#paint102_linear_34_1430)" fill-opacity="0.5"/>
<ellipse cx="188.335" cy="280.477" rx="6.07531" ry="6.52273" fill="url(#paint103_linear_34_1430)" fill-opacity="0.5"/>
<ellipse cx="224.786" cy="6.52273" rx="6.07531" ry="6.52273" fill="url(#paint104_linear_34_1430)" fill-opacity="0.6"/>
<ellipse cx="224.786" cy="45.659" rx="6.07531" ry="6.52273" fill="url(#paint105_linear_34_1430)" fill-opacity="0.6"/>
<ellipse cx="224.786" cy="84.7957" rx="6.07531" ry="6.52273" fill="url(#paint106_linear_34_1430)" fill-opacity="0.6"/>
<ellipse cx="224.786" cy="123.932" rx="6.07531" ry="6.52273" fill="url(#paint107_linear_34_1430)" fill-opacity="0.6"/>
<ellipse cx="224.786" cy="163.068" rx="6.07531" ry="6.52273" fill="url(#paint108_linear_34_1430)" fill-opacity="0.6"/>
<ellipse cx="224.786" cy="202.204" rx="6.07531" ry="6.52273" fill="url(#paint109_linear_34_1430)" fill-opacity="0.6"/>
<ellipse cx="224.786" cy="241.341" rx="6.07531" ry="6.52273" fill="url(#paint110_linear_34_1430)" fill-opacity="0.6"/>
<ellipse cx="224.786" cy="280.477" rx="6.07531" ry="6.52273" fill="url(#paint111_linear_34_1430)" fill-opacity="0.6"/>
<ellipse cx="261.238" cy="6.52273" rx="6.07531" ry="6.52273" fill="url(#paint112_linear_34_1430)" fill-opacity="0.6"/>
<ellipse cx="261.238" cy="45.659" rx="6.07531" ry="6.52273" fill="url(#paint113_linear_34_1430)" fill-opacity="0.6"/>
<ellipse cx="261.238" cy="84.7957" rx="6.07531" ry="6.52273" fill="url(#paint114_linear_34_1430)" fill-opacity="0.6"/>
<ellipse cx="261.238" cy="123.932" rx="6.07531" ry="6.52273" fill="url(#paint115_linear_34_1430)" fill-opacity="0.6"/>
<ellipse cx="261.238" cy="163.068" rx="6.07531" ry="6.52273" fill="url(#paint116_linear_34_1430)" fill-opacity="0.6"/>
<ellipse cx="261.238" cy="202.204" rx="6.07531" ry="6.52273" fill="url(#paint117_linear_34_1430)" fill-opacity="0.6"/>
<ellipse cx="261.238" cy="241.341" rx="6.07531" ry="6.52273" fill="url(#paint118_linear_34_1430)" fill-opacity="0.6"/>
<ellipse cx="261.238" cy="280.477" rx="6.07531" ry="6.52273" fill="url(#paint119_linear_34_1430)" fill-opacity="0.6"/>
<ellipse cx="297.69" cy="6.52273" rx="6.07531" ry="6.52273" fill="url(#paint120_linear_34_1430)" fill-opacity="0.7"/>
<ellipse cx="297.69" cy="45.659" rx="6.07531" ry="6.52273" fill="url(#paint121_linear_34_1430)" fill-opacity="0.7"/>
<ellipse cx="297.69" cy="84.7957" rx="6.07531" ry="6.52273" fill="url(#paint122_linear_34_1430)" fill-opacity="0.7"/>
<ellipse cx="297.69" cy="123.932" rx="6.07531" ry="6.52273" fill="url(#paint123_linear_34_1430)" fill-opacity="0.7"/>
<ellipse cx="297.69" cy="163.068" rx="6.07531" ry="6.52273" fill="url(#paint124_linear_34_1430)" fill-opacity="0.7"/>
<ellipse cx="297.69" cy="202.204" rx="6.07531" ry="6.52273" fill="url(#paint125_linear_34_1430)" fill-opacity="0.7"/>
<ellipse cx="297.69" cy="241.341" rx="6.07531" ry="6.52273" fill="url(#paint126_linear_34_1430)" fill-opacity="0.7"/>
<ellipse cx="297.69" cy="280.477" rx="6.07531" ry="6.52273" fill="url(#paint127_linear_34_1430)" fill-opacity="0.7"/>
<ellipse cx="334.142" cy="6.52273" rx="6.07531" ry="6.52273" fill="url(#paint128_linear_34_1430)" fill-opacity="0.7"/>
<ellipse cx="334.142" cy="45.659" rx="6.07531" ry="6.52273" fill="url(#paint129_linear_34_1430)" fill-opacity="0.7"/>
<ellipse cx="334.142" cy="84.7957" rx="6.07531" ry="6.52273" fill="url(#paint130_linear_34_1430)" fill-opacity="0.7"/>
<ellipse cx="334.142" cy="123.932" rx="6.07531" ry="6.52273" fill="url(#paint131_linear_34_1430)" fill-opacity="0.7"/>
<ellipse cx="334.142" cy="163.068" rx="6.07531" ry="6.52273" fill="url(#paint132_linear_34_1430)" fill-opacity="0.7"/>
<ellipse cx="334.142" cy="202.204" rx="6.07531" ry="6.52273" fill="url(#paint133_linear_34_1430)" fill-opacity="0.7"/>
<ellipse cx="334.142" cy="241.341" rx="6.07531" ry="6.52273" fill="url(#paint134_linear_34_1430)" fill-opacity="0.7"/>
<ellipse cx="334.142" cy="280.477" rx="6.07531" ry="6.52273" fill="url(#paint135_linear_34_1430)" fill-opacity="0.7"/>
<defs>
<linearGradient id="paint0_linear_34_1430" x1="372.686" y1="3.11364" x2="362.423" y2="3.21227" gradientUnits="userSpaceOnUse">
<stop stop-color="white"/>
<stop offset="1" stop-color="white"/>
</linearGradient>
<linearGradient id="paint1_linear_34_1430" x1="372.686" y1="42.2499" x2="362.423" y2="42.3485" gradientUnits="userSpaceOnUse">
<stop stop-color="white"/>
<stop offset="1" stop-color="white"/>
</linearGradient>
<linearGradient id="paint2_linear_34_1430" x1="372.686" y1="81.3866" x2="362.423" y2="81.4852" gradientUnits="userSpaceOnUse">
<stop stop-color="white"/>
<stop offset="1" stop-color="white"/>
</linearGradient>
<linearGradient id="paint3_linear_34_1430" x1="372.686" y1="120.523" x2="362.423" y2="120.621" gradientUnits="userSpaceOnUse">
<stop stop-color="white"/>
<stop offset="1" stop-color="white"/>
</linearGradient>
<linearGradient id="paint4_linear_34_1430" x1="372.686" y1="159.659" x2="362.423" y2="159.758" gradientUnits="userSpaceOnUse">
<stop stop-color="white"/>
<stop offset="1" stop-color="white"/>
</linearGradient>
<linearGradient id="paint5_linear_34_1430" x1="372.686" y1="198.795" x2="362.423" y2="198.894" gradientUnits="userSpaceOnUse">
<stop stop-color="white"/>
<stop offset="1" stop-color="white"/>
</linearGradient>
<linearGradient id="paint6_linear_34_1430" x1="372.686" y1="237.932" x2="362.423" y2="238.031" gradientUnits="userSpaceOnUse">
<stop stop-color="white"/>
<stop offset="1" stop-color="white"/>
</linearGradient>
<linearGradient id="paint7_linear_34_1430" x1="372.686" y1="277.068" x2="362.423" y2="277.167" gradientUnits="userSpaceOnUse">
<stop stop-color="white"/>
<stop offset="1" stop-color="white"/>
</linearGradient>
<linearGradient id="paint8_linear_34_1430" x1="409.138" y1="3.11364" x2="398.875" y2="3.21227" gradientUnits="userSpaceOnUse">
<stop stop-color="white"/>
<stop offset="1" stop-color="white"/>
</linearGradient>
<linearGradient id="paint9_linear_34_1430" x1="409.138" y1="42.2499" x2="398.875" y2="42.3485" gradientUnits="userSpaceOnUse">
<stop stop-color="white"/>
<stop offset="1" stop-color="white"/>
</linearGradient>
<linearGradient id="paint10_linear_34_1430" x1="409.138" y1="81.3866" x2="398.875" y2="81.4852" gradientUnits="userSpaceOnUse">
<stop stop-color="white"/>
<stop offset="1" stop-color="white"/>
</linearGradient>
<linearGradient id="paint11_linear_34_1430" x1="409.138" y1="120.523" x2="398.875" y2="120.621" gradientUnits="userSpaceOnUse">
<stop stop-color="white"/>
<stop offset="1" stop-color="white"/>
</linearGradient>
<linearGradient id="paint12_linear_34_1430" x1="409.138" y1="159.659" x2="398.875" y2="159.758" gradientUnits="userSpaceOnUse">
<stop stop-color="white"/>
<stop offset="1" stop-color="white"/>
</linearGradient>
<linearGradient id="paint13_linear_34_1430" x1="409.138" y1="198.795" x2="398.875" y2="198.894" gradientUnits="userSpaceOnUse">
<stop stop-color="white"/>
<stop offset="1" stop-color="white"/>
</linearGradient>
<linearGradient id="paint14_linear_34_1430" x1="409.138" y1="237.932" x2="398.875" y2="238.031" gradientUnits="userSpaceOnUse">
<stop stop-color="white"/>
<stop offset="1" stop-color="white"/>
</linearGradient>
<linearGradient id="paint15_linear_34_1430" x1="409.138" y1="277.068" x2="398.875" y2="277.167" gradientUnits="userSpaceOnUse">
<stop stop-color="white"/>
<stop offset="1" stop-color="white"/>
</linearGradient>
<linearGradient id="paint16_linear_34_1430" x1="445.59" y1="3.11364" x2="435.326" y2="3.21227" gradientUnits="userSpaceOnUse">
<stop stop-color="white"/>
<stop offset="1" stop-color="white"/>
</linearGradient>
<linearGradient id="paint17_linear_34_1430" x1="445.59" y1="42.2499" x2="435.326" y2="42.3485" gradientUnits="userSpaceOnUse">
<stop stop-color="white"/>
<stop offset="1" stop-color="white"/>
</linearGradient>
<linearGradient id="paint18_linear_34_1430" x1="445.59" y1="81.3866" x2="435.326" y2="81.4852" gradientUnits="userSpaceOnUse">
<stop stop-color="white"/>
<stop offset="1" stop-color="white"/>
</linearGradient>
<linearGradient id="paint19_linear_34_1430" x1="445.59" y1="120.523" x2="435.326" y2="120.621" gradientUnits="userSpaceOnUse">
<stop stop-color="white"/>
<stop offset="1" stop-color="white"/>
</linearGradient>
<linearGradient id="paint20_linear_34_1430" x1="445.59" y1="159.659" x2="435.326" y2="159.758" gradientUnits="userSpaceOnUse">
<stop stop-color="white"/>
<stop offset="1" stop-color="white"/>
</linearGradient>
<linearGradient id="paint21_linear_34_1430" x1="445.59" y1="198.795" x2="435.326" y2="198.894" gradientUnits="userSpaceOnUse">
<stop stop-color="white"/>
<stop offset="1" stop-color="white"/>
</linearGradient>
<linearGradient id="paint22_linear_34_1430" x1="445.59" y1="237.932" x2="435.326" y2="238.031" gradientUnits="userSpaceOnUse">
<stop stop-color="white"/>
<stop offset="1" stop-color="white"/>
</linearGradient>
<linearGradient id="paint23_linear_34_1430" x1="445.59" y1="277.068" x2="435.326" y2="277.167" gradientUnits="userSpaceOnUse">
<stop stop-color="white"/>
<stop offset="1" stop-color="white"/>
</linearGradient>
<linearGradient id="paint24_linear_34_1430" x1="482.042" y1="3.11364" x2="471.778" y2="3.21227" gradientUnits="userSpaceOnUse">
<stop stop-color="white"/>
<stop offset="1" stop-color="white"/>
</linearGradient>
<linearGradient id="paint25_linear_34_1430" x1="482.042" y1="42.2499" x2="471.778" y2="42.3485" gradientUnits="userSpaceOnUse">
<stop stop-color="white"/>
<stop offset="1" stop-color="white"/>
</linearGradient>
<linearGradient id="paint26_linear_34_1430" x1="482.042" y1="81.3866" x2="471.778" y2="81.4852" gradientUnits="userSpaceOnUse">
<stop stop-color="white"/>
<stop offset="1" stop-color="white"/>
</linearGradient>
<linearGradient id="paint27_linear_34_1430" x1="482.042" y1="120.523" x2="471.778" y2="120.621" gradientUnits="userSpaceOnUse">
<stop stop-color="white"/>
<stop offset="1" stop-color="white"/>
</linearGradient>
<linearGradient id="paint28_linear_34_1430" x1="482.042" y1="159.659" x2="471.778" y2="159.758" gradientUnits="userSpaceOnUse">
<stop stop-color="white"/>
<stop offset="1" stop-color="white"/>
</linearGradient>
<linearGradient id="paint29_linear_34_1430" x1="482.042" y1="198.795" x2="471.778" y2="198.894" gradientUnits="userSpaceOnUse">
<stop stop-color="white"/>
<stop offset="1" stop-color="white"/>
</linearGradient>
<linearGradient id="paint30_linear_34_1430" x1="482.042" y1="237.932" x2="471.778" y2="238.031" gradientUnits="userSpaceOnUse">
<stop stop-color="white"/>
<stop offset="1" stop-color="white"/>
</linearGradient>
<linearGradient id="paint31_linear_34_1430" x1="482.042" y1="277.068" x2="471.778" y2="277.167" gradientUnits="userSpaceOnUse">
<stop stop-color="white"/>
<stop offset="1" stop-color="white"/>
</linearGradient>
<linearGradient id="paint32_linear_34_1430" x1="518.494" y1="3.11364" x2="508.23" y2="3.21227" gradientUnits="userSpaceOnUse">
<stop stop-color="white"/>
<stop offset="1" stop-color="white"/>
</linearGradient>
<linearGradient id="paint33_linear_34_1430" x1="518.494" y1="42.2499" x2="508.23" y2="42.3485" gradientUnits="userSpaceOnUse">
<stop stop-color="white"/>
<stop offset="1" stop-color="white"/>
</linearGradient>
<linearGradient id="paint34_linear_34_1430" x1="518.494" y1="81.3866" x2="508.23" y2="81.4852" gradientUnits="userSpaceOnUse">
<stop stop-color="white"/>
<stop offset="1" stop-color="white"/>
</linearGradient>
<linearGradient id="paint35_linear_34_1430" x1="518.494" y1="120.523" x2="508.23" y2="120.621" gradientUnits="userSpaceOnUse">
<stop stop-color="white"/>
<stop offset="1" stop-color="white"/>
</linearGradient>
<linearGradient id="paint36_linear_34_1430" x1="518.494" y1="159.659" x2="508.23" y2="159.758" gradientUnits="userSpaceOnUse">
<stop stop-color="white"/>
<stop offset="1" stop-color="white"/>
</linearGradient>
<linearGradient id="paint37_linear_34_1430" x1="518.494" y1="198.795" x2="508.23" y2="198.894" gradientUnits="userSpaceOnUse">
<stop stop-color="white"/>
<stop offset="1" stop-color="white"/>
</linearGradient>
<linearGradient id="paint38_linear_34_1430" x1="518.494" y1="237.932" x2="508.23" y2="238.031" gradientUnits="userSpaceOnUse">
<stop stop-color="white"/>
<stop offset="1" stop-color="white"/>
</linearGradient>
<linearGradient id="paint39_linear_34_1430" x1="518.494" y1="277.068" x2="508.23" y2="277.167" gradientUnits="userSpaceOnUse">
<stop stop-color="white"/>
<stop offset="1" stop-color="white"/>
</linearGradient>
<linearGradient id="paint40_linear_34_1430" x1="554.946" y1="3.11364" x2="544.682" y2="3.21227" gradientUnits="userSpaceOnUse">
<stop stop-color="white"/>
<stop offset="1" stop-color="white"/>
</linearGradient>
<linearGradient id="paint41_linear_34_1430" x1="554.946" y1="42.2499" x2="544.682" y2="42.3485" gradientUnits="userSpaceOnUse">
<stop stop-color="white"/>
<stop offset="1" stop-color="white"/>
</linearGradient>
<linearGradient id="paint42_linear_34_1430" x1="554.946" y1="81.3866" x2="544.682" y2="81.4852" gradientUnits="userSpaceOnUse">
<stop stop-color="white"/>
<stop offset="1" stop-color="white"/>
</linearGradient>
<linearGradient id="paint43_linear_34_1430" x1="554.946" y1="120.523" x2="544.682" y2="120.621" gradientUnits="userSpaceOnUse">
<stop stop-color="white"/>
<stop offset="1" stop-color="white"/>
</linearGradient>
<linearGradient id="paint44_linear_34_1430" x1="554.946" y1="159.659" x2="544.682" y2="159.758" gradientUnits="userSpaceOnUse">
<stop stop-color="white"/>
<stop offset="1" stop-color="white"/>
</linearGradient>
<linearGradient id="paint45_linear_34_1430" x1="554.946" y1="198.795" x2="544.682" y2="198.894" gradientUnits="userSpaceOnUse">
<stop stop-color="white"/>
<stop offset="1" stop-color="white"/>
</linearGradient>
<linearGradient id="paint46_linear_34_1430" x1="554.946" y1="237.932" x2="544.682" y2="238.031" gradientUnits="userSpaceOnUse">
<stop stop-color="white"/>
<stop offset="1" stop-color="white"/>
</linearGradient>
<linearGradient id="paint47_linear_34_1430" x1="554.946" y1="277.068" x2="544.682" y2="277.167" gradientUnits="userSpaceOnUse">
<stop stop-color="white"/>
<stop offset="1" stop-color="white"/>
</linearGradient>
<linearGradient id="paint48_linear_34_1430" x1="591.397" y1="3.11364" x2="581.134" y2="3.21227" gradientUnits="userSpaceOnUse">
<stop stop-color="white"/>
<stop offset="1" stop-color="white"/>
</linearGradient>
<linearGradient id="paint49_linear_34_1430" x1="591.397" y1="42.2499" x2="581.134" y2="42.3485" gradientUnits="userSpaceOnUse">
<stop stop-color="white"/>
<stop offset="1" stop-color="white"/>
</linearGradient>
<linearGradient id="paint50_linear_34_1430" x1="591.397" y1="81.3866" x2="581.134" y2="81.4852" gradientUnits="userSpaceOnUse">
<stop stop-color="white"/>
<stop offset="1" stop-color="white"/>
</linearGradient>
<linearGradient id="paint51_linear_34_1430" x1="591.397" y1="120.523" x2="581.134" y2="120.621" gradientUnits="userSpaceOnUse">
<stop stop-color="white"/>
<stop offset="1" stop-color="white"/>
</linearGradient>
<linearGradient id="paint52_linear_34_1430" x1="591.397" y1="159.659" x2="581.134" y2="159.758" gradientUnits="userSpaceOnUse">
<stop stop-color="white"/>
<stop offset="1" stop-color="white"/>
</linearGradient>
<linearGradient id="paint53_linear_34_1430" x1="591.397" y1="198.795" x2="581.134" y2="198.894" gradientUnits="userSpaceOnUse">
<stop stop-color="white"/>
<stop offset="1" stop-color="white"/>
</linearGradient>
<linearGradient id="paint54_linear_34_1430" x1="591.397" y1="237.932" x2="581.134" y2="238.031" gradientUnits="userSpaceOnUse">
<stop stop-color="white"/>
<stop offset="1" stop-color="white"/>
</linearGradient>
<linearGradient id="paint55_linear_34_1430" x1="591.397" y1="277.068" x2="581.134" y2="277.167" gradientUnits="userSpaceOnUse">
<stop stop-color="white"/>
<stop offset="1" stop-color="white"/>
</linearGradient>
<linearGradient id="paint56_linear_34_1430" x1="627.849" y1="3.11364" x2="617.586" y2="3.21227" gradientUnits="userSpaceOnUse">
<stop stop-color="white"/>
<stop offset="1" stop-color="white"/>
</linearGradient>
<linearGradient id="paint57_linear_34_1430" x1="627.849" y1="42.2499" x2="617.586" y2="42.3485" gradientUnits="userSpaceOnUse">
<stop stop-color="white"/>
<stop offset="1" stop-color="white"/>
</linearGradient>
<linearGradient id="paint58_linear_34_1430" x1="627.849" y1="81.3866" x2="617.586" y2="81.4852" gradientUnits="userSpaceOnUse">
<stop stop-color="white"/>
<stop offset="1" stop-color="white"/>
</linearGradient>
<linearGradient id="paint59_linear_34_1430" x1="627.849" y1="120.523" x2="617.586" y2="120.621" gradientUnits="userSpaceOnUse">
<stop stop-color="white"/>
<stop offset="1" stop-color="white"/>
</linearGradient>
<linearGradient id="paint60_linear_34_1430" x1="627.849" y1="159.659" x2="617.586" y2="159.758" gradientUnits="userSpaceOnUse">
<stop stop-color="white"/>
<stop offset="1" stop-color="white"/>
</linearGradient>
<linearGradient id="paint61_linear_34_1430" x1="627.849" y1="198.795" x2="617.586" y2="198.894" gradientUnits="userSpaceOnUse">
<stop stop-color="white"/>
<stop offset="1" stop-color="white"/>
</linearGradient>
<linearGradient id="paint62_linear_34_1430" x1="627.849" y1="237.932" x2="617.586" y2="238.031" gradientUnits="userSpaceOnUse">
<stop stop-color="white"/>
<stop offset="1" stop-color="white"/>
</linearGradient>
<linearGradient id="paint63_linear_34_1430" x1="627.849" y1="277.068" x2="617.586" y2="277.167" gradientUnits="userSpaceOnUse">
<stop stop-color="white"/>
<stop offset="1" stop-color="white"/>
</linearGradient>
<linearGradient id="paint64_linear_34_1430" x1="664.301" y1="3.11364" x2="654.038" y2="3.21227" gradientUnits="userSpaceOnUse">
<stop stop-color="white"/>
<stop offset="1" stop-color="white"/>
</linearGradient>
<linearGradient id="paint65_linear_34_1430" x1="664.301" y1="42.2499" x2="654.038" y2="42.3485" gradientUnits="userSpaceOnUse">
<stop stop-color="white"/>
<stop offset="1" stop-color="white"/>
</linearGradient>
<linearGradient id="paint66_linear_34_1430" x1="664.301" y1="81.3866" x2="654.038" y2="81.4852" gradientUnits="userSpaceOnUse">
<stop stop-color="white"/>
<stop offset="1" stop-color="white"/>
</linearGradient>
<linearGradient id="paint67_linear_34_1430" x1="664.301" y1="120.523" x2="654.038" y2="120.621" gradientUnits="userSpaceOnUse">
<stop stop-color="white"/>
<stop offset="1" stop-color="white"/>
</linearGradient>
<linearGradient id="paint68_linear_34_1430" x1="664.301" y1="159.659" x2="654.038" y2="159.758" gradientUnits="userSpaceOnUse">
<stop stop-color="white"/>
<stop offset="1" stop-color="white"/>
</linearGradient>
<linearGradient id="paint69_linear_34_1430" x1="664.301" y1="198.795" x2="654.038" y2="198.894" gradientUnits="userSpaceOnUse">
<stop stop-color="white"/>
<stop offset="1" stop-color="white"/>
</linearGradient>
<linearGradient id="paint70_linear_34_1430" x1="664.301" y1="237.932" x2="654.038" y2="238.031" gradientUnits="userSpaceOnUse">
<stop stop-color="white"/>
<stop offset="1" stop-color="white"/>
</linearGradient>
<linearGradient id="paint71_linear_34_1430" x1="664.301" y1="277.068" x2="654.038" y2="277.167" gradientUnits="userSpaceOnUse">
<stop stop-color="white"/>
<stop offset="1" stop-color="white"/>
</linearGradient>
<linearGradient id="paint72_linear_34_1430" x1="700.753" y1="3.11364" x2="690.49" y2="3.21227" gradientUnits="userSpaceOnUse">
<stop stop-color="white"/>
<stop offset="1" stop-color="white"/>
</linearGradient>
<linearGradient id="paint73_linear_34_1430" x1="700.753" y1="42.2499" x2="690.49" y2="42.3485" gradientUnits="userSpaceOnUse">
<stop stop-color="white"/>
<stop offset="1" stop-color="white"/>
</linearGradient>
<linearGradient id="paint74_linear_34_1430" x1="700.753" y1="81.3866" x2="690.49" y2="81.4852" gradientUnits="userSpaceOnUse">
<stop stop-color="white"/>
<stop offset="1" stop-color="white"/>
</linearGradient>
<linearGradient id="paint75_linear_34_1430" x1="700.753" y1="120.523" x2="690.49" y2="120.621" gradientUnits="userSpaceOnUse">
<stop stop-color="white"/>
<stop offset="1" stop-color="white"/>
</linearGradient>
<linearGradient id="paint76_linear_34_1430" x1="700.753" y1="159.659" x2="690.49" y2="159.758" gradientUnits="userSpaceOnUse">
<stop stop-color="white"/>
<stop offset="1" stop-color="white"/>
</linearGradient>
<linearGradient id="paint77_linear_34_1430" x1="700.753" y1="198.795" x2="690.49" y2="198.894" gradientUnits="userSpaceOnUse">
<stop stop-color="white"/>
<stop offset="1" stop-color="white"/>
</linearGradient>
<linearGradient id="paint78_linear_34_1430" x1="700.753" y1="237.932" x2="690.49" y2="238.031" gradientUnits="userSpaceOnUse">
<stop stop-color="white"/>
<stop offset="1" stop-color="white"/>
</linearGradient>
<linearGradient id="paint79_linear_34_1430" x1="700.753" y1="277.068" x2="690.49" y2="277.167" gradientUnits="userSpaceOnUse">
<stop stop-color="white"/>
<stop offset="1" stop-color="white"/>
</linearGradient>
<linearGradient id="paint80_linear_34_1430" x1="119.259" y1="3.11364" x2="108.996" y2="3.21227" gradientUnits="userSpaceOnUse">
<stop stop-color="white"/>
<stop offset="1" stop-color="white"/>
</linearGradient>
<linearGradient id="paint81_linear_34_1430" x1="119.259" y1="42.2499" x2="108.996" y2="42.3485" gradientUnits="userSpaceOnUse">
<stop stop-color="white"/>
<stop offset="1" stop-color="white"/>
</linearGradient>
<linearGradient id="paint82_linear_34_1430" x1="119.259" y1="81.3866" x2="108.996" y2="81.4852" gradientUnits="userSpaceOnUse">
<stop stop-color="white"/>
<stop offset="1" stop-color="white"/>
</linearGradient>
<linearGradient id="paint83_linear_34_1430" x1="119.259" y1="120.523" x2="108.996" y2="120.621" gradientUnits="userSpaceOnUse">
<stop stop-color="white"/>
<stop offset="1" stop-color="white"/>
</linearGradient>
<linearGradient id="paint84_linear_34_1430" x1="119.259" y1="159.659" x2="108.996" y2="159.758" gradientUnits="userSpaceOnUse">
<stop stop-color="white"/>
<stop offset="1" stop-color="white"/>
</linearGradient>
<linearGradient id="paint85_linear_34_1430" x1="119.259" y1="198.795" x2="108.996" y2="198.894" gradientUnits="userSpaceOnUse">
<stop stop-color="white"/>
<stop offset="1" stop-color="white"/>
</linearGradient>
<linearGradient id="paint86_linear_34_1430" x1="119.259" y1="237.932" x2="108.996" y2="238.031" gradientUnits="userSpaceOnUse">
<stop stop-color="white"/>
<stop offset="1" stop-color="white"/>
</linearGradient>
<linearGradient id="paint87_linear_34_1430" x1="119.259" y1="277.068" x2="108.996" y2="277.167" gradientUnits="userSpaceOnUse">
<stop stop-color="white"/>
<stop offset="1" stop-color="white"/>
</linearGradient>
<linearGradient id="paint88_linear_34_1430" x1="155.711" y1="3.11364" x2="145.447" y2="3.21227" gradientUnits="userSpaceOnUse">
<stop stop-color="white"/>
<stop offset="1" stop-color="white"/>
</linearGradient>
<linearGradient id="paint89_linear_34_1430" x1="155.711" y1="42.2499" x2="145.447" y2="42.3485" gradientUnits="userSpaceOnUse">
<stop stop-color="white"/>
<stop offset="1" stop-color="white"/>
</linearGradient>
<linearGradient id="paint90_linear_34_1430" x1="155.711" y1="81.3866" x2="145.447" y2="81.4852" gradientUnits="userSpaceOnUse">
<stop stop-color="white"/>
<stop offset="1" stop-color="white"/>
</linearGradient>
<linearGradient id="paint91_linear_34_1430" x1="155.711" y1="120.523" x2="145.447" y2="120.621" gradientUnits="userSpaceOnUse">
<stop stop-color="white"/>
<stop offset="1" stop-color="white"/>
</linearGradient>
<linearGradient id="paint92_linear_34_1430" x1="155.711" y1="159.659" x2="145.447" y2="159.758" gradientUnits="userSpaceOnUse">
<stop stop-color="white"/>
<stop offset="1" stop-color="white"/>
</linearGradient>
<linearGradient id="paint93_linear_34_1430" x1="155.711" y1="198.795" x2="145.447" y2="198.894" gradientUnits="userSpaceOnUse">
<stop stop-color="white"/>
<stop offset="1" stop-color="white"/>
</linearGradient>
<linearGradient id="paint94_linear_34_1430" x1="155.711" y1="237.932" x2="145.447" y2="238.031" gradientUnits="userSpaceOnUse">
<stop stop-color="white"/>
<stop offset="1" stop-color="white"/>
</linearGradient>
<linearGradient id="paint95_linear_34_1430" x1="155.711" y1="277.068" x2="145.447" y2="277.167" gradientUnits="userSpaceOnUse">
<stop stop-color="white"/>
<stop offset="1" stop-color="white"/>
</linearGradient>
<linearGradient id="paint96_linear_34_1430" x1="192.163" y1="3.11364" x2="181.899" y2="3.21227" gradientUnits="userSpaceOnUse">
<stop stop-color="white"/>
<stop offset="1" stop-color="white"/>
</linearGradient>
<linearGradient id="paint97_linear_34_1430" x1="192.163" y1="42.2499" x2="181.899" y2="42.3485" gradientUnits="userSpaceOnUse">
<stop stop-color="white"/>
<stop offset="1" stop-color="white"/>
</linearGradient>
<linearGradient id="paint98_linear_34_1430" x1="192.163" y1="81.3866" x2="181.899" y2="81.4852" gradientUnits="userSpaceOnUse">
<stop stop-color="white"/>
<stop offset="1" stop-color="white"/>
</linearGradient>
<linearGradient id="paint99_linear_34_1430" x1="192.163" y1="120.523" x2="181.899" y2="120.621" gradientUnits="userSpaceOnUse">
<stop stop-color="white"/>
<stop offset="1" stop-color="white"/>
</linearGradient>
<linearGradient id="paint100_linear_34_1430" x1="192.163" y1="159.659" x2="181.899" y2="159.758" gradientUnits="userSpaceOnUse">
<stop stop-color="white"/>
<stop offset="1" stop-color="white"/>
</linearGradient>
<linearGradient id="paint101_linear_34_1430" x1="192.163" y1="198.795" x2="181.899" y2="198.894" gradientUnits="userSpaceOnUse">
<stop stop-color="white"/>
<stop offset="1" stop-color="white"/>
</linearGradient>
<linearGradient id="paint102_linear_34_1430" x1="192.163" y1="237.932" x2="181.899" y2="238.031" gradientUnits="userSpaceOnUse">
<stop stop-color="white"/>
<stop offset="1" stop-color="white"/>
</linearGradient>
<linearGradient id="paint103_linear_34_1430" x1="192.163" y1="277.068" x2="181.899" y2="277.167" gradientUnits="userSpaceOnUse">
<stop stop-color="white"/>
<stop offset="1" stop-color="white"/>
</linearGradient>
<linearGradient id="paint104_linear_34_1430" x1="228.615" y1="3.11364" x2="218.351" y2="3.21227" gradientUnits="userSpaceOnUse">
<stop stop-color="white"/>
<stop offset="1" stop-color="white"/>
</linearGradient>
<linearGradient id="paint105_linear_34_1430" x1="228.615" y1="42.2499" x2="218.351" y2="42.3485" gradientUnits="userSpaceOnUse">
<stop stop-color="white"/>
<stop offset="1" stop-color="white"/>
</linearGradient>
<linearGradient id="paint106_linear_34_1430" x1="228.615" y1="81.3866" x2="218.351" y2="81.4852" gradientUnits="userSpaceOnUse">
<stop stop-color="white"/>
<stop offset="1" stop-color="white"/>
</linearGradient>
<linearGradient id="paint107_linear_34_1430" x1="228.615" y1="120.523" x2="218.351" y2="120.621" gradientUnits="userSpaceOnUse">
<stop stop-color="white"/>
<stop offset="1" stop-color="white"/>
</linearGradient>
<linearGradient id="paint108_linear_34_1430" x1="228.615" y1="159.659" x2="218.351" y2="159.758" gradientUnits="userSpaceOnUse">
<stop stop-color="white"/>
<stop offset="1" stop-color="white"/>
</linearGradient>
<linearGradient id="paint109_linear_34_1430" x1="228.615" y1="198.795" x2="218.351" y2="198.894" gradientUnits="userSpaceOnUse">
<stop stop-color="white"/>
<stop offset="1" stop-color="white"/>
</linearGradient>
<linearGradient id="paint110_linear_34_1430" x1="228.615" y1="237.932" x2="218.351" y2="238.031" gradientUnits="userSpaceOnUse">
<stop stop-color="white"/>
<stop offset="1" stop-color="white"/>
</linearGradient>
<linearGradient id="paint111_linear_34_1430" x1="228.615" y1="277.068" x2="218.351" y2="277.167" gradientUnits="userSpaceOnUse">
<stop stop-color="white"/>
<stop offset="1" stop-color="white"/>
</linearGradient>
<linearGradient id="paint112_linear_34_1430" x1="265.067" y1="3.11364" x2="254.803" y2="3.21227" gradientUnits="userSpaceOnUse">
<stop stop-color="white"/>
<stop offset="1" stop-color="white"/>
</linearGradient>
<linearGradient id="paint113_linear_34_1430" x1="265.067" y1="42.2499" x2="254.803" y2="42.3485" gradientUnits="userSpaceOnUse">
<stop stop-color="white"/>
<stop offset="1" stop-color="white"/>
</linearGradient>
<linearGradient id="paint114_linear_34_1430" x1="265.067" y1="81.3866" x2="254.803" y2="81.4852" gradientUnits="userSpaceOnUse">
<stop stop-color="white"/>
<stop offset="1" stop-color="white"/>
</linearGradient>
<linearGradient id="paint115_linear_34_1430" x1="265.067" y1="120.523" x2="254.803" y2="120.621" gradientUnits="userSpaceOnUse">
<stop stop-color="white"/>
<stop offset="1" stop-color="white"/>
</linearGradient>
<linearGradient id="paint116_linear_34_1430" x1="265.067" y1="159.659" x2="254.803" y2="159.758" gradientUnits="userSpaceOnUse">
<stop stop-color="white"/>
<stop offset="1" stop-color="white"/>
</linearGradient>
<linearGradient id="paint117_linear_34_1430" x1="265.067" y1="198.795" x2="254.803" y2="198.894" gradientUnits="userSpaceOnUse">
<stop stop-color="white"/>
<stop offset="1" stop-color="white"/>
</linearGradient>
<linearGradient id="paint118_linear_34_1430" x1="265.067" y1="237.932" x2="254.803" y2="238.031" gradientUnits="userSpaceOnUse">
<stop stop-color="white"/>
<stop offset="1" stop-color="white"/>
</linearGradient>
<linearGradient id="paint119_linear_34_1430" x1="265.067" y1="277.068" x2="254.803" y2="277.167" gradientUnits="userSpaceOnUse">
<stop stop-color="white"/>
<stop offset="1" stop-color="white"/>
</linearGradient>
<linearGradient id="paint120_linear_34_1430" x1="301.518" y1="3.11364" x2="291.255" y2="3.21227" gradientUnits="userSpaceOnUse">
<stop stop-color="white"/>
<stop offset="1" stop-color="white"/>
</linearGradient>
<linearGradient id="paint121_linear_34_1430" x1="301.518" y1="42.2499" x2="291.255" y2="42.3485" gradientUnits="userSpaceOnUse">
<stop stop-color="white"/>
<stop offset="1" stop-color="white"/>
</linearGradient>
<linearGradient id="paint122_linear_34_1430" x1="301.518" y1="81.3866" x2="291.255" y2="81.4852" gradientUnits="userSpaceOnUse">
<stop stop-color="white"/>
<stop offset="1" stop-color="white"/>
</linearGradient>
<linearGradient id="paint123_linear_34_1430" x1="301.518" y1="120.523" x2="291.255" y2="120.621" gradientUnits="userSpaceOnUse">
<stop stop-color="white"/>
<stop offset="1" stop-color="white"/>
</linearGradient>
<linearGradient id="paint124_linear_34_1430" x1="301.518" y1="159.659" x2="291.255" y2="159.758" gradientUnits="userSpaceOnUse">
<stop stop-color="white"/>
<stop offset="1" stop-color="white"/>
</linearGradient>
<linearGradient id="paint125_linear_34_1430" x1="301.518" y1="198.795" x2="291.255" y2="198.894" gradientUnits="userSpaceOnUse">
<stop stop-color="white"/>
<stop offset="1" stop-color="white"/>
</linearGradient>
<linearGradient id="paint126_linear_34_1430" x1="301.518" y1="237.932" x2="291.255" y2="238.031" gradientUnits="userSpaceOnUse">
<stop stop-color="white"/>
<stop offset="1" stop-color="white"/>
</linearGradient>
<linearGradient id="paint127_linear_34_1430" x1="301.518" y1="277.068" x2="291.255" y2="277.167" gradientUnits="userSpaceOnUse">
<stop stop-color="white"/>
<stop offset="1" stop-color="white"/>
</linearGradient>
<linearGradient id="paint128_linear_34_1430" x1="337.97" y1="3.11364" x2="327.707" y2="3.21227" gradientUnits="userSpaceOnUse">
<stop stop-color="white"/>
<stop offset="1" stop-color="white"/>
</linearGradient>
<linearGradient id="paint129_linear_34_1430" x1="337.97" y1="42.2499" x2="327.707" y2="42.3485" gradientUnits="userSpaceOnUse">
<stop stop-color="white"/>
<stop offset="1" stop-color="white"/>
</linearGradient>
<linearGradient id="paint130_linear_34_1430" x1="337.97" y1="81.3866" x2="327.707" y2="81.4852" gradientUnits="userSpaceOnUse">
<stop stop-color="white"/>
<stop offset="1" stop-color="white"/>
</linearGradient>
<linearGradient id="paint131_linear_34_1430" x1="337.97" y1="120.523" x2="327.707" y2="120.621" gradientUnits="userSpaceOnUse">
<stop stop-color="white"/>
<stop offset="1" stop-color="white"/>
</linearGradient>
<linearGradient id="paint132_linear_34_1430" x1="337.97" y1="159.659" x2="327.707" y2="159.758" gradientUnits="userSpaceOnUse">
<stop stop-color="white"/>
<stop offset="1" stop-color="white"/>
</linearGradient>
<linearGradient id="paint133_linear_34_1430" x1="337.97" y1="198.795" x2="327.707" y2="198.894" gradientUnits="userSpaceOnUse">
<stop stop-color="white"/>
<stop offset="1" stop-color="white"/>
</linearGradient>
<linearGradient id="paint134_linear_34_1430" x1="337.97" y1="237.932" x2="327.707" y2="238.031" gradientUnits="userSpaceOnUse">
<stop stop-color="white"/>
<stop offset="1" stop-color="white"/>
</linearGradient>
<linearGradient id="paint135_linear_34_1430" x1="337.97" y1="277.068" x2="327.707" y2="277.167" gradientUnits="userSpaceOnUse">
<stop stop-color="white"/>
<stop offset="1" stop-color="white"/>
</linearGradient>
</defs>
</svg>
