<svg width="1094" height="51" viewBox="0 0 1094 51" fill="none" xmlns="http://www.w3.org/2000/svg">
<path d="M637 1.75H773C786.393 1.75 797.25 12.6071 797.25 26C797.25 39.3929 786.393 50.25 773 50.25H637C623.607 50.25 612.75 39.3929 612.75 26C612.75 12.6071 623.607 1.75 637 1.75Z" fill="white" stroke="#F1F4F8" stroke-width="1.5"/>
<path d="M864 1.75H1069C1082.39 1.75 1093.25 12.6071 1093.25 26C1093.25 39.3929 1082.39 50.25 1069 50.25H864C850.607 50.25 839.75 39.3929 839.75 26C839.75 12.6071 850.607 1.75 864 1.75Z" fill="white" stroke="#F1F4F8" stroke-width="1.5"/>
<path d="M25 0.75H208C221.393 0.75 232.25 11.6071 232.25 25C232.25 38.3929 221.393 49.25 208 49.25H25C11.6071 49.25 0.75 38.3929 0.75 25C0.75 11.6071 11.6071 0.75 25 0.75Z" fill="white" stroke="#F1F4F8" stroke-width="1.5"/>
<path d="M293 1.75H549C562.393 1.75 573.25 12.6071 573.25 26C573.25 39.3929 562.393 50.25 549 50.25H293C279.607 50.25 268.75 39.3929 268.75 26C268.75 12.6071 279.607 1.75 293 1.75Z" fill="white" stroke="#F1F4F8" stroke-width="1.5"/>
</svg>
