<svg width="530" height="24" viewBox="0 0 530 24" fill="none" xmlns="http://www.w3.org/2000/svg">
<path d="M528.565 13.0607C529.151 12.4749 529.151 11.5251 528.565 10.9393L519.019 1.3934C518.433 0.807612 517.483 0.807612 516.898 1.3934C516.312 1.97918 516.312 2.92893 516.898 3.51472L525.383 12L516.898 20.4853C516.312 21.0711 516.312 22.0208 516.898 22.6066C517.483 23.1924 518.433 23.1924 519.019 22.6066L528.565 13.0607ZM527 13.5H527.504V10.5H527V13.5Z" fill="#C26487"/>
<path d="M0.939529 10.9393C0.353743 11.5251 0.353743 12.4749 0.939529 13.0607L10.4855 22.6066C11.0713 23.1924 12.021 23.1924 12.6068 22.6066C13.1926 22.0208 13.1926 21.0711 12.6068 20.4853L4.12151 12L12.6068 3.51472C13.1926 2.92893 13.1926 1.97918 12.6068 1.3934C12.021 0.807612 11.0713 0.807612 10.4855 1.3934L0.939529 10.9393ZM2.50397 10.5H2.00019L2.00019 13.5H2.50397L2.50397 10.5Z" fill="#C26487"/>
</svg>
