<svg width="1125" height="51" viewBox="0 0 1125 51" fill="none" xmlns="http://www.w3.org/2000/svg">
<path d="M543.711 0.75H798.289C811.522 0.75 822.25 11.4779 822.25 24.7114C822.25 37.9449 811.522 48.6728 798.289 48.6728H543.711C530.478 48.6728 519.75 37.9449 519.75 24.7114C519.75 11.4779 530.478 0.75 543.711 0.75Z" fill="white" stroke="#F1F4F8" stroke-width="1.5"/>
<path d="M877 0.75H1100C1113.39 0.75 1124.25 11.6071 1124.25 25C1124.25 38.3929 1113.39 49.25 1100 49.25H877C863.607 49.25 852.75 38.3929 852.75 25C852.75 11.6071 863.607 0.75 877 0.75Z" fill="white" stroke="#F1F4F8" stroke-width="1.5"/>
<path d="M24.5 0.75H191.5C204.617 0.75 215.25 11.3832 215.25 24.5C215.25 37.6168 204.617 48.25 191.5 48.25H24.5C11.3832 48.25 0.75 37.6168 0.75 24.5C0.75 11.3832 11.3832 0.75 24.5 0.75Z" fill="white" stroke="#F1F4F8" stroke-width="1.5"/>
<path d="M264 1.75H470C483.393 1.75 494.25 12.6071 494.25 26C494.25 39.3929 483.393 50.25 470 50.25H264C250.607 50.25 239.75 39.3929 239.75 26C239.75 12.6071 250.607 1.75 264 1.75Z" fill="white" stroke="#F1F4F8" stroke-width="1.5"/>
</svg>
