<svg width="1135" height="348" viewBox="0 0 1135 348" fill="none" xmlns="http://www.w3.org/2000/svg">
<circle cx="942.5" cy="169.5" r="3.5" fill="#FFF5DB"/>
<circle cx="942.5" cy="190.5" r="3.5" fill="#FFF5DB"/>
<circle cx="942.5" cy="211.5" r="3.5" fill="#FFF5DB"/>
<circle cx="942.5" cy="232.5" r="3.5" fill="#FFF5DB"/>
<circle cx="942.5" cy="253.5" r="3.5" fill="#FFF5DB"/>
<circle cx="942.5" cy="274.5" r="3.5" fill="#FFF5DB"/>
<circle cx="942.5" cy="295.5" r="3.5" fill="#FFF5DB"/>
<circle cx="942.5" cy="316.5" r="3.5" fill="#FFF5DB"/>
<circle cx="963.5" cy="169.5" r="3.5" fill="#FFF5DB"/>
<circle cx="963.5" cy="190.5" r="3.5" fill="#FFF5DB"/>
<circle cx="963.5" cy="211.5" r="3.5" fill="#FFF5DB"/>
<circle cx="963.5" cy="232.5" r="3.5" fill="#FFF5DB"/>
<circle cx="963.5" cy="253.5" r="3.5" fill="#FFF5DB"/>
<circle cx="963.5" cy="274.5" r="3.5" fill="#FFF5DB"/>
<circle cx="963.5" cy="295.5" r="3.5" fill="#FFF5DB"/>
<circle cx="963.5" cy="316.5" r="3.5" fill="#FFF5DB"/>
<circle cx="984.5" cy="169.5" r="3.5" fill="#FFF5DB"/>
<circle cx="984.5" cy="190.5" r="3.5" fill="#FFF5DB"/>
<circle cx="984.5" cy="211.5" r="3.5" fill="#FFF5DB"/>
<circle cx="984.5" cy="232.5" r="3.5" fill="#FFF5DB"/>
<circle cx="984.5" cy="253.5" r="3.5" fill="#FFF5DB"/>
<circle cx="984.5" cy="274.5" r="3.5" fill="#FFF5DB"/>
<circle cx="984.5" cy="295.5" r="3.5" fill="#FFF5DB"/>
<circle cx="984.5" cy="316.5" r="3.5" fill="#FFF5DB"/>
<circle cx="1005.5" cy="169.5" r="3.5" fill="#FFF5DB"/>
<circle cx="1005.5" cy="190.5" r="3.5" fill="#FFF5DB"/>
<circle cx="1005.5" cy="211.5" r="3.5" fill="#FFF5DB"/>
<circle cx="1005.5" cy="232.5" r="3.5" fill="#FFF5DB"/>
<circle cx="1005.5" cy="253.5" r="3.5" fill="#FFF5DB"/>
<circle cx="1005.5" cy="274.5" r="3.5" fill="#FFF5DB"/>
<circle cx="1005.5" cy="295.5" r="3.5" fill="#FFF5DB"/>
<circle cx="1005.5" cy="316.5" r="3.5" fill="#FFF5DB"/>
<circle cx="1026.5" cy="169.5" r="3.5" fill="#FFF5DB"/>
<circle cx="1026.5" cy="190.5" r="3.5" fill="#FFF5DB"/>
<circle cx="1026.5" cy="211.5" r="3.5" fill="#FFF5DB"/>
<circle cx="1026.5" cy="232.5" r="3.5" fill="#FFF5DB"/>
<circle cx="1026.5" cy="253.5" r="3.5" fill="#FFF5DB"/>
<circle cx="1026.5" cy="274.5" r="3.5" fill="#FFF5DB"/>
<circle cx="1026.5" cy="295.5" r="3.5" fill="#FFF5DB"/>
<circle cx="1026.5" cy="316.5" r="3.5" fill="#FFF5DB"/>
<circle cx="1047.5" cy="169.5" r="3.5" fill="#FFF5DB"/>
<circle cx="1047.5" cy="190.5" r="3.5" fill="#FFF5DB"/>
<circle cx="1047.5" cy="211.5" r="3.5" fill="#FFF5DB"/>
<circle cx="1047.5" cy="232.5" r="3.5" fill="#FFF5DB"/>
<circle cx="1047.5" cy="253.5" r="3.5" fill="#FFF5DB"/>
<circle cx="1047.5" cy="274.5" r="3.5" fill="#FFF5DB"/>
<circle cx="1047.5" cy="295.5" r="3.5" fill="#FFF5DB"/>
<circle cx="1047.5" cy="316.5" r="3.5" fill="#FFF5DB"/>
<circle cx="1068.5" cy="169.5" r="3.5" fill="#FFF5DB"/>
<circle cx="1068.5" cy="190.5" r="3.5" fill="#FFF5DB"/>
<circle cx="1068.5" cy="211.5" r="3.5" fill="#FFF5DB"/>
<circle cx="1068.5" cy="232.5" r="3.5" fill="#FFF5DB"/>
<circle cx="1068.5" cy="253.5" r="3.5" fill="#FFF5DB"/>
<circle cx="1068.5" cy="274.5" r="3.5" fill="#FFF5DB"/>
<circle cx="1068.5" cy="295.5" r="3.5" fill="#FFF5DB"/>
<circle cx="1068.5" cy="316.5" r="3.5" fill="#FFF5DB"/>
<circle cx="1089.5" cy="169.5" r="3.5" fill="#FFF5DB"/>
<circle cx="1089.5" cy="190.5" r="3.5" fill="#FFF5DB"/>
<circle cx="1089.5" cy="211.5" r="3.5" fill="#FFF5DB"/>
<circle cx="1089.5" cy="232.5" r="3.5" fill="#FFF5DB"/>
<circle cx="1089.5" cy="253.5" r="3.5" fill="#FFF5DB"/>
<circle cx="1089.5" cy="274.5" r="3.5" fill="#FFF5DB"/>
<circle cx="1089.5" cy="295.5" r="3.5" fill="#FFF5DB"/>
<circle cx="1089.5" cy="316.5" r="3.5" fill="#FFF5DB"/>
<circle cx="1110.5" cy="169.5" r="3.5" fill="#FFF5DB"/>
<circle cx="1110.5" cy="190.5" r="3.5" fill="#FFF5DB"/>
<circle cx="1110.5" cy="211.5" r="3.5" fill="#FFF5DB"/>
<circle cx="1110.5" cy="232.5" r="3.5" fill="#FFF5DB"/>
<circle cx="1110.5" cy="253.5" r="3.5" fill="#FFF5DB"/>
<circle cx="1110.5" cy="274.5" r="3.5" fill="#FFF5DB"/>
<circle cx="1110.5" cy="295.5" r="3.5" fill="#FFF5DB"/>
<circle cx="1110.5" cy="316.5" r="3.5" fill="#FFF5DB"/>
<circle cx="1131.5" cy="169.5" r="3.5" fill="#FFF5DB"/>
<circle cx="1131.5" cy="190.5" r="3.5" fill="#FFF5DB"/>
<circle cx="1131.5" cy="211.5" r="3.5" fill="#FFF5DB"/>
<circle cx="1131.5" cy="232.5" r="3.5" fill="#FFF5DB"/>
<circle cx="1131.5" cy="253.5" r="3.5" fill="#FFF5DB"/>
<circle cx="1131.5" cy="274.5" r="3.5" fill="#FFF5DB"/>
<circle cx="1131.5" cy="295.5" r="3.5" fill="#FFF5DB"/>
<circle cx="1131.5" cy="316.5" r="3.5" fill="#FFF5DB"/>
<circle cx="733.5" cy="169.5" r="3.5" fill="#FFF5DB"/>
<circle cx="733.5" cy="190.5" r="3.5" fill="#FFF5DB"/>
<circle cx="733.5" cy="211.5" r="3.5" fill="#FFF5DB"/>
<circle cx="733.5" cy="232.5" r="3.5" fill="#FFF5DB"/>
<circle cx="733.5" cy="253.5" r="3.5" fill="#FFF5DB"/>
<circle cx="733.5" cy="274.5" r="3.5" fill="#FFF5DB"/>
<circle cx="733.5" cy="295.5" r="3.5" fill="#FFF5DB"/>
<circle cx="733.5" cy="316.5" r="3.5" fill="#FFF5DB"/>
<circle cx="754.5" cy="169.5" r="3.5" fill="#FFF5DB"/>
<circle cx="754.5" cy="190.5" r="3.5" fill="#FFF5DB"/>
<circle cx="754.5" cy="211.5" r="3.5" fill="#FFF5DB"/>
<circle cx="754.5" cy="232.5" r="3.5" fill="#FFF5DB"/>
<circle cx="754.5" cy="253.5" r="3.5" fill="#FFF5DB"/>
<circle cx="754.5" cy="274.5" r="3.5" fill="#FFF5DB"/>
<circle cx="754.5" cy="295.5" r="3.5" fill="#FFF5DB"/>
<circle cx="754.5" cy="316.5" r="3.5" fill="#FFF5DB"/>
<circle cx="775.5" cy="169.5" r="3.5" fill="#FFF5DB"/>
<circle cx="775.5" cy="190.5" r="3.5" fill="#FFF5DB"/>
<circle cx="775.5" cy="211.5" r="3.5" fill="#FFF5DB"/>
<circle cx="775.5" cy="232.5" r="3.5" fill="#FFF5DB"/>
<circle cx="775.5" cy="253.5" r="3.5" fill="#FFF5DB"/>
<circle cx="775.5" cy="274.5" r="3.5" fill="#FFF5DB"/>
<circle cx="775.5" cy="295.5" r="3.5" fill="#FFF5DB"/>
<circle cx="775.5" cy="316.5" r="3.5" fill="#FFF5DB"/>
<circle cx="796.5" cy="169.5" r="3.5" fill="#FFF5DB"/>
<circle cx="796.5" cy="190.5" r="3.5" fill="#FFF5DB"/>
<circle cx="796.5" cy="211.5" r="3.5" fill="#FFF5DB"/>
<circle cx="796.5" cy="232.5" r="3.5" fill="#FFF5DB"/>
<circle cx="796.5" cy="253.5" r="3.5" fill="#FFF5DB"/>
<circle cx="796.5" cy="274.5" r="3.5" fill="#FFF5DB"/>
<circle cx="796.5" cy="295.5" r="3.5" fill="#FFF5DB"/>
<circle cx="796.5" cy="316.5" r="3.5" fill="#FFF5DB"/>
<circle cx="817.5" cy="169.5" r="3.5" fill="#FFF5DB"/>
<circle cx="817.5" cy="190.5" r="3.5" fill="#FFF5DB"/>
<circle cx="817.5" cy="211.5" r="3.5" fill="#FFF5DB"/>
<circle cx="817.5" cy="232.5" r="3.5" fill="#FFF5DB"/>
<circle cx="817.5" cy="253.5" r="3.5" fill="#FFF5DB"/>
<circle cx="817.5" cy="274.5" r="3.5" fill="#FFF5DB"/>
<circle cx="817.5" cy="295.5" r="3.5" fill="#FFF5DB"/>
<circle cx="817.5" cy="316.5" r="3.5" fill="#FFF5DB"/>
<circle cx="838.5" cy="169.5" r="3.5" fill="#FFF5DB"/>
<circle cx="838.5" cy="190.5" r="3.5" fill="#FFF5DB"/>
<circle cx="838.5" cy="211.5" r="3.5" fill="#FFF5DB"/>
<circle cx="838.5" cy="232.5" r="3.5" fill="#FFF5DB"/>
<circle cx="838.5" cy="253.5" r="3.5" fill="#FFF5DB"/>
<circle cx="838.5" cy="274.5" r="3.5" fill="#FFF5DB"/>
<circle cx="838.5" cy="295.5" r="3.5" fill="#FFF5DB"/>
<circle cx="838.5" cy="316.5" r="3.5" fill="#FFF5DB"/>
<circle cx="859.5" cy="169.5" r="3.5" fill="#FFF5DB"/>
<circle cx="859.5" cy="190.5" r="3.5" fill="#FFF5DB"/>
<circle cx="859.5" cy="211.5" r="3.5" fill="#FFF5DB"/>
<circle cx="859.5" cy="232.5" r="3.5" fill="#FFF5DB"/>
<circle cx="859.5" cy="253.5" r="3.5" fill="#FFF5DB"/>
<circle cx="859.5" cy="274.5" r="3.5" fill="#FFF5DB"/>
<circle cx="859.5" cy="295.5" r="3.5" fill="#FFF5DB"/>
<circle cx="859.5" cy="316.5" r="3.5" fill="#FFF5DB"/>
<circle cx="880.5" cy="169.5" r="3.5" fill="#FFF5DB"/>
<circle cx="880.5" cy="190.5" r="3.5" fill="#FFF5DB"/>
<circle cx="880.5" cy="211.5" r="3.5" fill="#FFF5DB"/>
<circle cx="880.5" cy="232.5" r="3.5" fill="#FFF5DB"/>
<circle cx="880.5" cy="253.5" r="3.5" fill="#FFF5DB"/>
<circle cx="880.5" cy="274.5" r="3.5" fill="#FFF5DB"/>
<circle cx="880.5" cy="295.5" r="3.5" fill="#FFF5DB"/>
<circle cx="880.5" cy="316.5" r="3.5" fill="#FFF5DB"/>
<circle cx="901.5" cy="169.5" r="3.5" fill="#FFF5DB"/>
<circle cx="901.5" cy="190.5" r="3.5" fill="#FFF5DB"/>
<circle cx="901.5" cy="211.5" r="3.5" fill="#FFF5DB"/>
<circle cx="901.5" cy="232.5" r="3.5" fill="#FFF5DB"/>
<circle cx="901.5" cy="253.5" r="3.5" fill="#FFF5DB"/>
<circle cx="901.5" cy="274.5" r="3.5" fill="#FFF5DB"/>
<circle cx="901.5" cy="295.5" r="3.5" fill="#FFF5DB"/>
<circle cx="901.5" cy="316.5" r="3.5" fill="#FFF5DB"/>
<circle cx="922.5" cy="169.5" r="3.5" fill="#FFF5DB"/>
<circle cx="922.5" cy="190.5" r="3.5" fill="#FFF5DB"/>
<circle cx="922.5" cy="211.5" r="3.5" fill="#FFF5DB"/>
<circle cx="922.5" cy="232.5" r="3.5" fill="#FFF5DB"/>
<circle cx="922.5" cy="253.5" r="3.5" fill="#FFF5DB"/>
<circle cx="922.5" cy="274.5" r="3.5" fill="#FFF5DB"/>
<circle cx="922.5" cy="295.5" r="3.5" fill="#FFF5DB"/>
<circle cx="922.5" cy="316.5" r="3.5" fill="#FFF5DB"/>
<circle cx="942.5" cy="3.5" r="3.5" fill="#FFF5DB"/>
<circle cx="942.5" cy="24.5" r="3.5" fill="#FFF5DB"/>
<circle cx="942.5" cy="45.5" r="3.5" fill="#FFF5DB"/>
<circle cx="942.5" cy="66.5" r="3.5" fill="#FFF5DB"/>
<circle cx="942.5" cy="87.5" r="3.5" fill="#FFF5DB"/>
<circle cx="942.5" cy="108.5" r="3.5" fill="#FFF5DB"/>
<circle cx="942.5" cy="129.5" r="3.5" fill="#FFF5DB"/>
<circle cx="942.5" cy="150.5" r="3.5" fill="#FFF5DB"/>
<circle cx="963.5" cy="3.5" r="3.5" fill="#FFF5DB"/>
<circle cx="963.5" cy="24.5" r="3.5" fill="#FFF5DB"/>
<circle cx="963.5" cy="45.5" r="3.5" fill="#FFF5DB"/>
<circle cx="963.5" cy="66.5" r="3.5" fill="#FFF5DB"/>
<circle cx="963.5" cy="87.5" r="3.5" fill="#FFF5DB"/>
<circle cx="963.5" cy="108.5" r="3.5" fill="#FFF5DB"/>
<circle cx="963.5" cy="129.5" r="3.5" fill="#FFF5DB"/>
<circle cx="963.5" cy="150.5" r="3.5" fill="#FFF5DB"/>
<circle cx="984.5" cy="3.5" r="3.5" fill="#FFF5DB"/>
<circle cx="984.5" cy="24.5" r="3.5" fill="#FFF5DB"/>
<circle cx="984.5" cy="45.5" r="3.5" fill="#FFF5DB"/>
<circle cx="984.5" cy="66.5" r="3.5" fill="#FFF5DB"/>
<circle cx="984.5" cy="87.5" r="3.5" fill="#FFF5DB"/>
<circle cx="984.5" cy="108.5" r="3.5" fill="#FFF5DB"/>
<circle cx="984.5" cy="129.5" r="3.5" fill="#FFF5DB"/>
<circle cx="984.5" cy="150.5" r="3.5" fill="#FFF5DB"/>
<circle cx="1005.5" cy="3.5" r="3.5" fill="#FFF5DB"/>
<circle cx="1005.5" cy="24.5" r="3.5" fill="#FFF5DB"/>
<circle cx="1005.5" cy="45.5" r="3.5" fill="#FFF5DB"/>
<circle cx="1005.5" cy="66.5" r="3.5" fill="#FFF5DB"/>
<circle cx="1005.5" cy="87.5" r="3.5" fill="#FFF5DB"/>
<circle cx="1005.5" cy="108.5" r="3.5" fill="#FFF5DB"/>
<circle cx="1005.5" cy="129.5" r="3.5" fill="#FFF5DB"/>
<circle cx="1005.5" cy="150.5" r="3.5" fill="#FFF5DB"/>
<circle cx="1026.5" cy="3.5" r="3.5" fill="#FFF5DB"/>
<circle cx="1026.5" cy="24.5" r="3.5" fill="#FFF5DB"/>
<circle cx="1026.5" cy="45.5" r="3.5" fill="#FFF5DB"/>
<circle cx="1026.5" cy="66.5" r="3.5" fill="#FFF5DB"/>
<circle cx="1026.5" cy="87.5" r="3.5" fill="#FFF5DB"/>
<circle cx="1026.5" cy="108.5" r="3.5" fill="#FFF5DB"/>
<circle cx="1026.5" cy="129.5" r="3.5" fill="#FFF5DB"/>
<circle cx="1026.5" cy="150.5" r="3.5" fill="#FFF5DB"/>
<circle cx="1047.5" cy="3.5" r="3.5" fill="#FFF5DB"/>
<circle cx="1047.5" cy="24.5" r="3.5" fill="#FFF5DB"/>
<circle cx="1047.5" cy="45.5" r="3.5" fill="#FFF5DB"/>
<circle cx="1047.5" cy="66.5" r="3.5" fill="#FFF5DB"/>
<circle cx="1047.5" cy="87.5" r="3.5" fill="#FFF5DB"/>
<circle cx="1047.5" cy="108.5" r="3.5" fill="#FFF5DB"/>
<circle cx="1047.5" cy="129.5" r="3.5" fill="#FFF5DB"/>
<circle cx="1047.5" cy="150.5" r="3.5" fill="#FFF5DB"/>
<circle cx="1068.5" cy="3.5" r="3.5" fill="#FFF5DB"/>
<circle cx="1068.5" cy="24.5" r="3.5" fill="#FFF5DB"/>
<circle cx="1068.5" cy="45.5" r="3.5" fill="#FFF5DB"/>
<circle cx="1068.5" cy="66.5" r="3.5" fill="#FFF5DB"/>
<circle cx="1068.5" cy="87.5" r="3.5" fill="#FFF5DB"/>
<circle cx="1068.5" cy="108.5" r="3.5" fill="#FFF5DB"/>
<circle cx="1068.5" cy="129.5" r="3.5" fill="#FFF5DB"/>
<circle cx="1068.5" cy="150.5" r="3.5" fill="#FFF5DB"/>
<circle cx="1089.5" cy="3.5" r="3.5" fill="#FFF5DB"/>
<circle cx="1089.5" cy="24.5" r="3.5" fill="#FFF5DB"/>
<circle cx="1089.5" cy="45.5" r="3.5" fill="#FFF5DB"/>
<circle cx="1089.5" cy="66.5" r="3.5" fill="#FFF5DB"/>
<circle cx="1089.5" cy="87.5" r="3.5" fill="#FFF5DB"/>
<circle cx="1089.5" cy="108.5" r="3.5" fill="#FFF5DB"/>
<circle cx="1089.5" cy="129.5" r="3.5" fill="#FFF5DB"/>
<circle cx="1089.5" cy="150.5" r="3.5" fill="#FFF5DB"/>
<circle cx="1110.5" cy="3.5" r="3.5" fill="#FFF5DB"/>
<circle cx="1110.5" cy="24.5" r="3.5" fill="#FFF5DB"/>
<circle cx="1110.5" cy="45.5" r="3.5" fill="#FFF5DB"/>
<circle cx="1110.5" cy="66.5" r="3.5" fill="#FFF5DB"/>
<circle cx="1110.5" cy="87.5" r="3.5" fill="#FFF5DB"/>
<circle cx="1110.5" cy="108.5" r="3.5" fill="#FFF5DB"/>
<circle cx="1110.5" cy="129.5" r="3.5" fill="#FFF5DB"/>
<circle cx="1110.5" cy="150.5" r="3.5" fill="#FFF5DB"/>
<circle cx="1131.5" cy="3.5" r="3.5" fill="#FFF5DB"/>
<circle cx="1131.5" cy="24.5" r="3.5" fill="#FFF5DB"/>
<circle cx="1131.5" cy="45.5" r="3.5" fill="#FFF5DB"/>
<circle cx="1131.5" cy="66.5" r="3.5" fill="#FFF5DB"/>
<circle cx="1131.5" cy="87.5" r="3.5" fill="#FFF5DB"/>
<circle cx="1131.5" cy="108.5" r="3.5" fill="#FFF5DB"/>
<circle cx="1131.5" cy="129.5" r="3.5" fill="#FFF5DB"/>
<circle cx="1131.5" cy="150.5" r="3.5" fill="#FFF5DB"/>
<circle cx="733.5" cy="3.5" r="3.5" fill="#FFF5DB"/>
<circle cx="733.5" cy="24.5" r="3.5" fill="#FFF5DB"/>
<circle cx="733.5" cy="45.5" r="3.5" fill="#FFF5DB"/>
<circle cx="733.5" cy="66.5" r="3.5" fill="#FFF5DB"/>
<circle cx="733.5" cy="87.5" r="3.5" fill="#FFF5DB"/>
<circle cx="733.5" cy="108.5" r="3.5" fill="#FFF5DB"/>
<circle cx="733.5" cy="129.5" r="3.5" fill="#FFF5DB"/>
<circle cx="733.5" cy="150.5" r="3.5" fill="#FFF5DB"/>
<circle cx="754.5" cy="3.5" r="3.5" fill="#FFF5DB"/>
<circle cx="754.5" cy="24.5" r="3.5" fill="#FFF5DB"/>
<circle cx="754.5" cy="45.5" r="3.5" fill="#FFF5DB"/>
<circle cx="754.5" cy="66.5" r="3.5" fill="#FFF5DB"/>
<circle cx="754.5" cy="87.5" r="3.5" fill="#FFF5DB"/>
<circle cx="754.5" cy="108.5" r="3.5" fill="#FFF5DB"/>
<circle cx="754.5" cy="129.5" r="3.5" fill="#FFF5DB"/>
<circle cx="754.5" cy="150.5" r="3.5" fill="#FFF5DB"/>
<circle cx="775.5" cy="3.5" r="3.5" fill="#FFF5DB"/>
<circle cx="775.5" cy="24.5" r="3.5" fill="#FFF5DB"/>
<circle cx="775.5" cy="45.5" r="3.5" fill="#FFF5DB"/>
<circle cx="775.5" cy="66.5" r="3.5" fill="#FFF5DB"/>
<circle cx="775.5" cy="87.5" r="3.5" fill="#FFF5DB"/>
<circle cx="775.5" cy="108.5" r="3.5" fill="#FFF5DB"/>
<circle cx="775.5" cy="129.5" r="3.5" fill="#FFF5DB"/>
<circle cx="775.5" cy="150.5" r="3.5" fill="#FFF5DB"/>
<circle cx="796.5" cy="3.5" r="3.5" fill="#FFF5DB"/>
<circle cx="796.5" cy="24.5" r="3.5" fill="#FFF5DB"/>
<circle cx="796.5" cy="45.5" r="3.5" fill="#FFF5DB"/>
<circle cx="796.5" cy="66.5" r="3.5" fill="#FFF5DB"/>
<circle cx="796.5" cy="87.5" r="3.5" fill="#FFF5DB"/>
<circle cx="796.5" cy="108.5" r="3.5" fill="#FFF5DB"/>
<circle cx="796.5" cy="129.5" r="3.5" fill="#FFF5DB"/>
<circle cx="796.5" cy="150.5" r="3.5" fill="#FFF5DB"/>
<circle cx="817.5" cy="3.5" r="3.5" fill="#FFF5DB"/>
<circle cx="817.5" cy="24.5" r="3.5" fill="#FFF5DB"/>
<circle cx="817.5" cy="45.5" r="3.5" fill="#FFF5DB"/>
<circle cx="817.5" cy="66.5" r="3.5" fill="#FFF5DB"/>
<circle cx="817.5" cy="87.5" r="3.5" fill="#FFF5DB"/>
<circle cx="817.5" cy="108.5" r="3.5" fill="#FFF5DB"/>
<circle cx="817.5" cy="129.5" r="3.5" fill="#FFF5DB"/>
<circle cx="817.5" cy="150.5" r="3.5" fill="#FFF5DB"/>
<circle cx="838.5" cy="3.5" r="3.5" fill="#FFF5DB"/>
<circle cx="838.5" cy="24.5" r="3.5" fill="#FFF5DB"/>
<circle cx="838.5" cy="45.5" r="3.5" fill="#FFF5DB"/>
<circle cx="838.5" cy="66.5" r="3.5" fill="#FFF5DB"/>
<circle cx="838.5" cy="87.5" r="3.5" fill="#FFF5DB"/>
<circle cx="838.5" cy="108.5" r="3.5" fill="#FFF5DB"/>
<circle cx="838.5" cy="129.5" r="3.5" fill="#FFF5DB"/>
<circle cx="838.5" cy="150.5" r="3.5" fill="#FFF5DB"/>
<circle cx="859.5" cy="3.5" r="3.5" fill="#FFF5DB"/>
<circle cx="859.5" cy="24.5" r="3.5" fill="#FFF5DB"/>
<circle cx="859.5" cy="45.5" r="3.5" fill="#FFF5DB"/>
<circle cx="859.5" cy="66.5" r="3.5" fill="#FFF5DB"/>
<circle cx="859.5" cy="87.5" r="3.5" fill="#FFF5DB"/>
<circle cx="859.5" cy="108.5" r="3.5" fill="#FFF5DB"/>
<circle cx="859.5" cy="129.5" r="3.5" fill="#FFF5DB"/>
<circle cx="859.5" cy="150.5" r="3.5" fill="#FFF5DB"/>
<circle cx="880.5" cy="3.5" r="3.5" fill="#FFF5DB"/>
<circle cx="880.5" cy="24.5" r="3.5" fill="#FFF5DB"/>
<circle cx="880.5" cy="45.5" r="3.5" fill="#FFF5DB"/>
<circle cx="880.5" cy="66.5" r="3.5" fill="#FFF5DB"/>
<circle cx="880.5" cy="87.5" r="3.5" fill="#FFF5DB"/>
<circle cx="880.5" cy="108.5" r="3.5" fill="#FFF5DB"/>
<circle cx="880.5" cy="129.5" r="3.5" fill="#FFF5DB"/>
<circle cx="880.5" cy="150.5" r="3.5" fill="#FFF5DB"/>
<circle cx="901.5" cy="3.5" r="3.5" fill="#FFF5DB"/>
<circle cx="901.5" cy="24.5" r="3.5" fill="#FFF5DB"/>
<circle cx="901.5" cy="45.5" r="3.5" fill="#FFF5DB"/>
<circle cx="901.5" cy="66.5" r="3.5" fill="#FFF5DB"/>
<circle cx="901.5" cy="87.5" r="3.5" fill="#FFF5DB"/>
<circle cx="901.5" cy="108.5" r="3.5" fill="#FFF5DB"/>
<circle cx="901.5" cy="129.5" r="3.5" fill="#FFF5DB"/>
<circle cx="901.5" cy="150.5" r="3.5" fill="#FFF5DB"/>
<circle cx="922.5" cy="3.5" r="3.5" fill="#FFF5DB"/>
<circle cx="922.5" cy="24.5" r="3.5" fill="#FFF5DB"/>
<circle cx="922.5" cy="45.5" r="3.5" fill="#FFF5DB"/>
<circle cx="922.5" cy="66.5" r="3.5" fill="#FFF5DB"/>
<circle cx="922.5" cy="87.5" r="3.5" fill="#FFF5DB"/>
<circle cx="922.5" cy="108.5" r="3.5" fill="#FFF5DB"/>
<circle cx="922.5" cy="129.5" r="3.5" fill="#FFF5DB"/>
<circle cx="922.5" cy="150.5" r="3.5" fill="#FFF5DB"/>
<circle cx="3.50034" cy="344.5" r="3.5" fill="#CCCCCC"/>
<circle cx="24.5003" cy="344.5" r="3.5" fill="#EBEBEB"/>
<circle cx="45.5003" cy="344.5" r="3.5" fill="#EBEBEB"/>
<circle cx="66.5003" cy="344.5" r="3.5" fill="#EBEBEB"/>
<circle cx="87.5003" cy="344.5" r="3.5" fill="#EBEBEB"/>
<circle cx="108.5" cy="344.5" r="3.5" fill="#EBEBEB"/>
<circle cx="129.5" cy="344.5" r="3.5" fill="#EBEBEB"/>
<circle cx="150.5" cy="344.5" r="3.5" fill="#EBEBEB"/>
</svg>
