<?xml version="1.0" encoding="UTF-8" standalone="no"?>
<svg
   xmlns:dc="http://purl.org/dc/elements/1.1/"
   xmlns:cc="http://creativecommons.org/ns#"
   xmlns:rdf="http://www.w3.org/1999/02/22-rdf-syntax-ns#"
   xmlns:svg="http://www.w3.org/2000/svg"
   xmlns="http://www.w3.org/2000/svg"
   xmlns:sodipodi="http://sodipodi.sourceforge.net/DTD/sodipodi-0.dtd"
   xmlns:inkscape="http://www.inkscape.org/namespaces/inkscape"
   inkscape:version="1.0 (4035a4fb49, 2020-05-01)"
   sodipodi:docname="logo.svg"
   id="svg6"
   version="1.1"
   width="202"
   height="40">
  <metadata
     id="metadata12">
    <rdf:RDF>
      <cc:Work
         rdf:about="">
        <dc:format>image/svg+xml</dc:format>
        <dc:type
           rdf:resource="http://purl.org/dc/dcmitype/StillImage" />
      </cc:Work>
    </rdf:RDF>
  </metadata>
  <defs
     id="defs10" />
  <sodipodi:namedview
     inkscape:current-layer="svg6"
     inkscape:window-maximized="1"
     inkscape:window-y="-11"
     inkscape:window-x="-11"
     inkscape:cy="20"
     inkscape:cx="84.355805"
     inkscape:zoom="7.9306931"
     showgrid="false"
     id="namedview8"
     inkscape:window-height="2066"
     inkscape:window-width="3840"
     inkscape:pageshadow="2"
     inkscape:pageopacity="0"
     guidetolerance="10"
     gridtolerance="10"
     objecttolerance="10"
     borderopacity="1"
     bordercolor="#666666"
     pagecolor="#ffffff" />
  <path
     style="stroke-width:1.05936"
     id="path2"
     fill="#434241"
     d="M 95.294471,3.5210142 92.629114,4.8176738 90.036855,3.5517356 89.585567,4.2201934 92.424658,6.404599 h 0.277553 L 95.672664,4.1767596 95.294471,3.5199547 Z M 112.1182,3.8420009 a 0.905755,0.905755 0 0 0 -0.40784,0.1027584 1.1494084,1.1494084 0 0 0 -0.36443,0.2468315 l -1.61765,1.7193453 0.52546,0.7129511 2.06893,-1.0911435 c 0.16525,-0.1080549 0.30085,-0.2436534 0.40785,-0.4089139 A 0.94177332,0.94177332 0 0 0 112.90426,4.5983859 0.73625699,0.73625699 0 0 0 112.75912,4.1619286 0.80087811,0.80087811 0 0 0 112.1182,3.8420009 Z M 61.212658,7.0900066 58.371449,14.883738 c -0.145133,0.398319 -0.26696,0.703415 -0.363362,0.917407 a 1.5360757,1.5360757 0 0 1 -0.407855,0.525443 0.91211117,0.91211117 0 0 1 -0.627142,0.21717 v 1.005335 h 3.117704 v -1.165299 c -0.378193,0 -0.723545,0.01484 -1.033938,0.04343 0.07733,-0.164202 0.165261,-0.383489 0.262722,-0.655746 0.105936,-0.271196 0.173736,-0.444931 0.202338,-0.523324 l 0.234119,-0.684349 3.159019,-0.05827 0.292385,0.800877 c 0.105936,0.271196 0.161023,0.505317 0.161023,0.699179 0,0.388787 -0.233061,0.58159 -0.69918,0.58159 v 0.961901 h 3.919642 v -1.121861 c -0.243654,0 -0.526503,0.01484 -0.84749,0.04343 a 3.7384905,3.7384905 0 0 0 -0.158905,-0.712942 8.84144,8.84144 0 0 0 -0.24789,-0.728842 L 62.232825,7.0900066 Z m 20.399086,0 -2.84121,7.7937314 c -0.145132,0.398319 -0.26696,0.703415 -0.363361,0.917407 a 1.5360757,1.5360757 0 0 1 -0.407855,0.525443 0.91211117,0.91211117 0 0 1 -0.627143,0.21717 v 1.005335 h 3.115586 v -1.165299 c -0.378193,0 -0.720367,0.01484 -1.03182,0.04343 a 7.6591915,7.6591915 0 0 0 0.260604,-0.655746 c 0.105936,-0.271196 0.175854,-0.444931 0.204457,-0.523324 l 0.234118,-0.684349 3.15902,-0.05827 0.292384,0.800877 c 0.105936,0.271196 0.158904,0.505317 0.158904,0.699179 0,0.388787 -0.230941,0.58159 -0.69706,0.58159 v 0.961901 h 3.916463 v -1.121861 c -0.242594,0 -0.523324,0.01484 -0.844311,0.04343 a 3.7384905,3.7384905 0 0 0 -0.158905,-0.712948 8.8372026,8.8372026 0 0 0 -0.24789,-0.728842 L 82.629791,7.0900066 Z m 10.75465,0.028602 c -1.077372,0 -1.999018,0.2648407 -2.765996,0.7881658 a 5.0499813,5.0499813 0 0 0 -1.747949,2.0530453 6.1760838,6.1760838 0 0 0 -0.583708,2.6356933 c 0,0.961901 0.208694,1.842232 0.626082,2.637814 0.41739,0.787105 1.006395,1.408951 1.76278,1.864478 0.757444,0.456584 1.627181,0.685408 2.607091,0.685408 0.747911,0 1.504295,-0.16632 2.272333,-0.497901 0.766978,-0.338996 1.471455,-0.950249 2.112369,-1.833757 l -0.699179,-0.641974 a 4.4694507,4.4694507 0 0 1 -1.514888,1.311492 3.7819244,3.7819244 0 0 1 -1.821045,0.479891 c -0.640914,0 -1.190723,-0.177974 -1.64625,-0.537097 -0.456585,-0.369717 -0.806174,-0.879271 -1.048768,-1.529721 -0.243654,-0.650447 -0.36442,-1.393061 -0.36442,-2.227838 0,-0.728843 0.111231,-1.408953 0.334758,-2.040333 0.222466,-0.6313802 0.559343,-1.1356368 1.006394,-1.5148886 0.455526,-0.3877267 1.009573,-0.5826494 1.66108,-0.5826494 1.368697,0.019068 2.182287,0.8347777 2.44501,2.447128 h 0.948129 V 7.2224269 h -1.121865 l 0.05827,0.6101928 h -0.01484 a 5.241726,5.241726 0 0 0 -1.25534,-0.523325 4.6336519,4.6336519 0 0 0 -1.254286,-0.1906853 z m 39.076706,0 c -1.08797,0 -2.0202,0.2690782 -2.79671,0.8029969 a 5.0054882,5.0054882 0 0 0 -1.73206,2.0096122 5.8010695,5.8010695 0 0 0 -0.58371,2.5191633 c 0,0.91317 0.17373,1.772314 0.52332,2.578488 a 4.5552591,4.5552591 0 0 0 1.66108,1.982068 c 0.75744,0.51485 1.71935,0.772276 2.88465,0.772276 1.08796,0 2.01278,-0.269079 2.78082,-0.802997 a 5.0764654,5.0764654 0 0 0 1.74795,-2.023383 c 0.38879,-0.826303 0.58371,-1.661081 0.58371,-2.506452 0,-0.863381 -0.18539,-1.703455 -0.55405,-2.5191633 A 4.7904376,4.7904376 0 0 0 134.25465,7.9216062 C 133.49721,7.3876875 132.55967,7.1186094 131.4431,7.1186086 Z m -59.833857,0.2192881 -4.239569,0.014831 v 1.121865 l 1.092203,-0.043433 c -0.03814,0.3294617 -0.0572,0.7680377 -0.0572,1.3114907 v 5.5786036 c 0,0.378192 -0.0392,0.654686 -0.11653,0.82948 -0.07734,0.174795 -0.184329,0.291324 -0.320986,0.349591 a 2.1144876,2.1144876 0 0 1 -0.597481,0.08686 v 0.961901 h 4.167532 c 1.281829,0 2.345429,-0.257424 3.189741,-0.771215 0.854905,-0.514851 1.475692,-1.165299 1.864478,-1.951345 A 5.4726671,5.4726671 0 0 0 77.187848,12.349737 4.9895977,4.9895977 0 0 0 76.562824,9.9312136 C 76.154967,9.1631792 75.528885,8.5423927 74.683513,8.0667389 73.848736,7.5815508 72.823272,7.3378975 71.609243,7.3378967 Z m 81.479807,0 -4.23956,0.014831 v 1.121865 l 1.0922,-0.043433 c -0.0381,0.3294617 -0.0572,0.7680377 -0.0572,1.3114907 v 5.5786036 c 0,0.378192 -0.0381,0.654686 -0.11652,0.82948 -0.0774,0.174795 -0.18433,0.291324 -0.32099,0.349591 a 2.1144876,2.1144876 0 0 1 -0.59748,0.08686 v 0.961901 h 4.16753 c 1.28183,0 2.34543,-0.257424 3.18974,-0.771215 0.8549,-0.514851 1.47569,-1.165299 1.86448,-1.951345 a 5.4726671,5.4726671 0 0 0 0.59642,-2.476791 c 0,-0.845371 -0.20764,-1.652605 -0.62503,-2.4185234 -0.40785,-0.7680386 -1.03393,-1.388825 -1.87931,-1.8644788 -0.83478,-0.4862475 -1.86023,-0.7288414 -3.07427,-0.7288414 z M 46.580743,7.3527286 v 1.1218649 l 1.107034,-0.043433 c -0.0392,0.222466 -0.05827,0.6610422 -0.05827,1.3114907 l 0.02965,5.5786028 c 0,0.378192 -0.03814,0.654686 -0.11653,0.82948 -0.07733,0.174795 -0.18433,0.291324 -0.320987,0.349591 a 2.1144876,2.1144876 0 0 1 -0.597481,0.08686 v 0.961901 h 3.321102 v -1.12186 c -0.417388,0 -0.781809,0.01484 -1.092203,0.04343 0.03814,-0.329462 0.0572,-0.766979 0.0572,-1.311492 l -0.02859,-4.515002 h 0.01484 c 0.291325,0.418449 0.557226,0.781808 0.79982,1.093262 l 4.661195,5.956795 h 1.239452 V 9.5805681 c 0,-0.3781925 0.0392,-0.6546862 0.11653,-0.829481 0.07733,-0.1747949 0.185388,-0.2860279 0.320987,-0.3347585 0.135598,-0.058264 0.335817,-0.092164 0.59748,-0.1016994 V 7.3527286 h -3.322161 v 1.1218649 l 1.091143,-0.043433 c -0.0286,0.242594 -0.04237,0.6801106 -0.04237,1.3114907 v 4.6156408 h -0.01484 a 42.438065,42.438065 0 0 0 -1.020171,-1.383527 l -4.45462,-5.620977 h -2.286104 z m 50.897074,0 v 1.1218649 l 1.107034,-0.043433 c -0.0392,0.2224657 -0.05827,0.6610419 -0.05827,1.3114904 l 0.0286,5.5786031 c 0,0.378192 -0.04026,0.654686 -0.116529,0.82948 -0.0784,0.174795 -0.185389,0.291324 -0.322046,0.349591 a 2.0975378,2.0975378 0 0 1 -0.595362,0.08686 v 0.961901 h 3.321106 v -1.12186 c -0.41739,0 -0.78182,0.01484 -1.092204,0.04343 0.03809,-0.329462 0.05724,-0.766979 0.05724,-1.311492 l -0.02857,-4.515002 h 0.01484 c 0.291334,0.418449 0.557234,0.781808 0.799824,1.093262 l 4.6612,5.956795 h 1.2384 V 9.5805681 c 0,-0.3781925 0.0403,-0.6546862 0.11758,-0.829481 0.0774,-0.1747949 0.18539,-0.2860279 0.32099,-0.3347585 0.13558,-0.058264 0.33369,-0.092164 0.59536,-0.1016994 V 7.3527286 h -3.32005 v 1.1218649 l 1.09114,-0.043433 c -0.0287,0.242594 -0.0423,0.6801106 -0.0423,1.3114907 v 4.6156408 h -0.0148 A 42.421115,42.421115 0 0 0 104.2207,12.974765 L 99.739557,7.3537878 h -2.286105 z m 11.294923,0 v 1.1218649 l 1.0922,-0.043433 c -0.0381,0.3294617 -0.0572,0.7680377 -0.0572,1.3114907 v 5.5786028 c 0,0.378192 -0.0413,0.654686 -0.11863,0.82948 -0.0774,0.174795 -0.18434,0.291324 -0.32099,0.349591 a 2.0975378,2.0975378 0 0 1 -0.59537,0.08686 v 0.961901 h 4.17918 v -1.12186 c -0.41739,0 -0.78181,0.01484 -1.0922,0.04343 0.0393,-0.329462 0.0584,-0.766979 0.0584,-1.311492 V 9.5826868 c 0,-0.3792519 0.0403,-0.6557455 0.11759,-0.8305403 0.0774,-0.1747948 0.18433,-0.2860279 0.32098,-0.3347587 0.1356,-0.058264 0.3337,-0.092164 0.59536,-0.1016982 V 7.3537878 h -4.17917 z m 9.47176,0 v 1.1218649 l 1.09326,-0.043433 c -0.0391,0.3294617 -0.0584,0.7680377 -0.0584,1.3114907 v 5.5786028 c 0,0.378192 -0.0381,0.654686 -0.11652,0.82948 -0.0774,0.174795 -0.18433,0.291324 -0.31993,0.349591 a 2.1123689,2.1123689 0 0 1 -0.59643,0.08686 v 0.961901 h 4.38471 v -1.12186 c -0.55404,0 -0.98627,0.01484 -1.29772,0.04343 0.0392,-0.329462 0.0583,-0.766979 0.0583,-1.311492 v -2.038213 h 0.17587 c 0.31039,-0.0096 0.56357,0.01059 0.75744,0.05827 0.20339,0.04872 0.36336,0.169498 0.47989,0.364422 0.12712,0.184327 0.19068,0.470356 0.19068,0.858083 h 0.95979 v -3.538263 h -1.12187 c 0.0297,0.709773 0.0487,1.126102 0.0584,1.252167 H 121.3919 V 9.5826868 c 0,-0.3601834 0.0339,-0.6313801 0.10168,-0.8157093 0.0774,-0.1843291 0.18434,-0.3008589 0.32099,-0.3495897 0.1356,-0.058264 0.32098,-0.092164 0.55405,-0.1016982 l 0.52333,-0.013773 c 0.48519,-0.020129 0.90045,0.1112331 1.23944,0.3919641 0.3496,0.2722563 0.52334,0.7680379 0.52334,1.4862873 h 0.9619 l -0.089,-2.826381 h -7.28312 z m 19.31642,0 v 1.1218649 l 1.10703,-0.043433 c -0.0381,0.222466 -0.0571,0.6610422 -0.0571,1.3114907 l 0.0287,5.5786028 c 0,0.378192 -0.0381,0.654686 -0.11654,0.82948 -0.0774,0.174795 -0.18432,0.291324 -0.31992,0.349591 a 2.0975378,2.0975378 0 0 1 -0.59642,0.08686 v 0.961901 h 3.32109 v -1.12186 c -0.41739,0 -0.78181,0.01484 -1.09221,0.04343 0.0392,-0.329462 0.0584,-0.766979 0.0584,-1.311492 l -0.0297,-4.515002 h 0.0148 c 0.29132,0.418449 0.55829,0.781808 0.80088,1.093262 l 4.6612,5.956795 h 1.23733 V 9.5805681 c 0,-0.3781925 0.0403,-0.6546862 0.11864,-0.829481 0.0774,-0.1747949 0.18222,-0.2860279 0.31782,-0.3347585 0.13666,-0.058264 0.3358,-0.092164 0.59854,-0.1016994 V 7.3527286 h -3.32111 v 1.1218649 l 1.09221,-0.043433 c -0.0287,0.242594 -0.0423,0.6801106 -0.0423,1.3114907 v 4.6156408 h -0.0148 a 42.438065,42.438065 0 0 0 -1.02016,-1.383527 l -4.47052,-5.6209764 h -2.28822 z m -6.22905,0.8294808 c 0.9513,0 1.66955,0.4099734 2.1558,1.2246232 0.48519,0.8157094 0.72778,1.9132084 0.72778,3.2924984 0,0.659983 -0.088,1.295601 -0.26272,1.906853 -0.1748,0.612311 -0.46294,1.117628 -0.8602,1.514889 -0.39832,0.39832 -0.91318,0.598539 -1.54349,0.598539 -0.68011,0 -1.24158,-0.228822 -1.68863,-0.685407 a 4.1251578,4.1251578 0 0 1 -0.94812,-1.719346 7.3837571,7.3837571 0 0 1 -0.29133,-2.037155 c 0,-0.670576 0.0878,-1.317846 0.26272,-1.938633 0.17479,-0.6218453 0.46612,-1.1366954 0.87292,-1.54455 0.40679,-0.4078546 0.93435,-0.6123116 1.57421,-0.6123116 z M 71.442923,8.3146297 c 1.09644,0 1.946049,0.3548866 2.548827,1.0636 0.601718,0.7097733 0.901517,1.8009163 0.901517,3.2776673 a 5.2438448,5.2438448 0 0 1 -0.334758,1.893081 c -0.213992,0.572056 -0.54981,1.039235 -1.006395,1.398358 -0.455525,0.360184 -1.022285,0.538157 -1.702396,0.538157 -0.193863,0 -0.355946,-0.0042 -0.48201,-0.01377 l -0.625024,-0.01484 a 1.7055738,1.7055738 0 0 0 -0.276493,0.01484 c 0.03814,-0.330521 0.0572,-0.768038 0.0572,-1.312551 V 9.5519652 c 0,-0.4947223 0.06885,-0.8263027 0.205517,-0.990504 0.145133,-0.1652605 0.383489,-0.2468315 0.71295,-0.2468315 z m 81.478747,0 c 1.0975,0 1.94712,0.3548866 2.54989,1.0636 0.60172,0.7097733 0.90152,1.8009163 0.90152,3.2776673 a 5.2438448,5.2438448 0 0 1 -0.33476,1.893081 c -0.21399,0.572056 -0.54981,1.039235 -1.00639,1.398358 -0.45553,0.360184 -1.02228,0.538157 -1.70239,0.538157 -0.19387,0 -0.35596,-0.0042 -0.48201,-0.01377 l -0.62504,-0.01484 a 1.7055738,1.7055738 0 0 0 -0.27649,0.01484 c 0.0381,-0.330521 0.0571,-0.768038 0.0571,-1.312551 V 9.5519652 c 0,-0.4947223 0.0688,-0.8263027 0.20551,-0.990504 0.14513,-0.1652605 0.38349,-0.2468315 0.71295,-0.2468315 z M 61.318595,9.6536641 h 0.01377 c 0.08792,0.5339179 0.273317,1.2002579 0.555106,1.9968979 l 0.6674,1.821045 h -2.430179 l 0.655745,-1.894142 c 0.203397,-0.582649 0.381371,-1.224621 0.538156,-1.9238009 z m 20.398026,0 h 0.01484 c 0.08792,0.5339179 0.271197,1.2002579 0.552987,1.9968979 l 0.669518,1.821045 h -2.43018 l 0.653625,-1.894142 C 81.38081,10.994816 81.56196,10.352844 81.717687,9.6536641 Z M 198.99865,19.936897 c -0.17479,0 -0.3623,0.08792 -0.56676,0.26272 l -1.83481,1.74583 0.32099,0.423746 2.11024,-1.296661 c 0.3104,-0.193863 0.46718,-0.407853 0.46718,-0.640913 a 0.49790041,0.49790041 0 0 0 -0.089,-0.307215 0.44811037,0.44811037 0 0 0 -0.1589,-0.115471 0.41738886,0.41738886 0 0 0 -0.2479,-0.07204 z m -61.87525,3.072151 c -1.07737,0 -2.00113,0.269078 -2.76812,0.802996 a 4.9440452,4.9440452 0 0 0 -1.73417,2.053045 6.5171985,6.5171985 0 0 0 -0.56675,2.696078 c 0,1.048768 0.20763,1.955583 0.62502,2.722561 a 4.4005921,4.4005921 0 0 0 1.74794,1.777611 c 0.74792,0.407855 1.60706,0.612311 2.57849,0.612311 0.33053,0 0.69495,-0.03601 1.0922,-0.103817 0.39833,-0.06779 0.74367,-0.158904 1.03501,-0.275435 0.64091,-0.252128 1.16529,-0.378192 1.57209,-0.378192 h 0.39302 v -2.231017 c 0,-0.445991 0.0593,-0.844312 0.17585,-1.193902 0.11653,-0.359123 0.40786,-0.537097 0.87398,-0.537097 v -0.483069 h -3.2925 v 0.641974 l 1.02016,-0.05827 v 3.190801 c -0.35912,0.243654 -0.76167,0.425864 -1.20767,0.551928 -0.43751,0.11653 -0.8655,0.175854 -1.28289,0.175854 a 3.4821248,3.4821248 0 0 1 -2.02338,-0.612312 c -0.59324,-0.407854 -1.05406,-0.971435 -1.38459,-1.689684 -0.33051,-0.719306 -0.49472,-1.532896 -0.49472,-2.446067 0,-0.883508 0.16421,-1.675912 0.49472,-2.37509 0.33899,-0.709774 0.79241,-1.260642 1.35599,-1.660023 a 3.2458869,3.2458869 0 0 1 1.89202,-0.59748 c 0.86444,0 1.58374,0.252128 2.1558,0.757445 0.58266,0.504256 0.90682,1.204495 0.97461,2.097538 h 0.52545 v -3.334874 h -0.79982 l 0.0572,0.699179 a 4.999132,4.999132 0 0 0 -1.42696,-0.582649 6.0097639,6.0097639 0 0 0 -1.58692,-0.220347 z m 40.38396,0 c -1.0869,0 -2.01491,0.269078 -2.78294,0.802996 a 5.048922,5.048922 0 0 0 -1.71935,2.009611 5.9218368,5.9218368 0 0 0 -0.56676,2.520223 c 0,0.902578 0.18328,1.761721 0.55299,2.57743 a 4.6929762,4.6929762 0 0 0 1.71934,1.982068 c 0.77652,0.51485 1.74796,0.772274 2.91325,0.772274 1.08798,0 2.00855,-0.26484 2.766,-0.788165 a 5.0012507,5.0012507 0 0 0 1.71934,-2.023383 c 0.3888,-0.826302 0.58265,-1.666376 0.58265,-2.521282 0,-0.863381 -0.19385,-1.703456 -0.58265,-2.519165 a 4.9366296,4.9366296 0 0 0 -1.76277,-2.009611 c -0.77652,-0.533918 -1.72147,-0.802996 -2.8391,-0.802996 z M 67.354843,23.214564 c -0.513791,0 -1.275472,0.01059 -2.286105,0.02965 v 0.640916 l 1.048769,-0.05827 a 10.646595,10.646595 0 0 0 -0.04449,1.04771 v 6.293673 c 0,0.495783 -0.01059,0.845372 -0.02965,1.048769 -0.01907,0.194922 -0.100636,0.363362 -0.245772,0.508495 -0.145133,0.145132 -0.388786,0.224585 -0.728841,0.235177 v 0.478835 h 3.277667 v -0.641974 l -1.048768,0.05827 c 0.02861,-0.252128 0.04237,-0.635617 0.04237,-1.150468 v -2.826379 c 0.127123,0.01059 0.322047,0.01694 0.584768,0.01694 0.184329,0 0.319928,-0.0074 0.406795,-0.01694 0.136658,0.127124 0.262722,0.273315 0.379252,0.438577 0.11653,0.165259 0.252129,0.377132 0.407854,0.639855 l 0.187508,0.306156 0.976732,1.559381 c 0.243654,0.379252 0.452348,0.688586 0.627143,0.932239 0.184329,0.233059 0.407854,0.460822 0.670576,0.684348 h 1.834815 v -0.479887 c -0.291324,0 -0.538156,-0.05508 -0.741553,-0.162083 A 2.0000765,2.0000765 0 0 1 72.162231,32.3611 13.617046,13.617046 0 0 1 71.637847,31.575053 l -0.990505,-1.557262 c -0.23306,-0.369718 -0.416329,-0.643033 -0.552987,-0.817829 -0.136658,-0.174794 -0.287088,-0.325224 -0.452349,-0.451289 1.009573,-0.203397 1.719346,-0.572054 2.127201,-1.107033 a 2.8306168,2.8306168 0 0 0 0.59748,-1.806212 c 0,-0.834779 -0.320987,-1.470396 -0.961901,-1.906854 -0.63138,-0.447051 -1.631418,-0.681171 -3.000115,-0.699179 -0.233059,-0.01059 -0.582649,-0.0159 -1.048768,-0.0159 z m 41.132927,0 c -0.80511,0 -1.88885,0.01059 -3.248,0.02965 v 0.640916 l 1.04876,-0.05827 a 10.646595,10.646595 0 0 0 -0.0455,1.04771 v 6.293673 c 0,0.495783 -0.009,0.845372 -0.0287,1.048769 a 0.81570918,0.81570918 0 0 1 -0.24577,0.508495 c -0.1462,0.146191 -0.38879,0.224585 -0.72884,0.235177 v 0.478835 h 3.56687 v -0.656804 l -1.33797,0.0731 c 0.0287,-0.252129 0.0423,-0.635618 0.0423,-1.150469 v -2.111309 c 0.12712,0.01059 0.30085,0.01484 0.52439,0.01484 1.1939,0 2.15049,-0.169499 2.8698,-0.508494 0.72779,-0.341115 1.23735,-0.766979 1.52867,-1.281829 0.30085,-0.51485 0.45341,-1.055125 0.45341,-1.617647 0,-0.980969 -0.37396,-1.723583 -1.12187,-2.228899 -0.73732,-0.504256 -1.83058,-0.757444 -3.27767,-0.757444 z m 16.8195,0 c -0.51379,0 -1.27759,0.01059 -2.28821,0.02965 v 0.640916 l 1.04875,-0.05827 c -0.0287,0.291324 -0.0423,0.639855 -0.0423,1.04771 v 6.293673 c 0,0.495783 -0.0106,0.845372 -0.0297,1.048769 a 0.81888726,0.81888726 0 0 1 -0.24789,0.508495 c -0.14619,0.146191 -0.38878,0.224585 -0.72883,0.235177 v 0.478835 h 3.27766 v -0.641974 l -1.04665,0.05827 c 0.0287,-0.252128 0.0423,-0.635617 0.0423,-1.150468 v -2.826379 c 0.12712,0.01059 0.31993,0.01694 0.58265,0.01694 0.18433,0 0.31993,-0.0074 0.40679,-0.01694 0.13666,0.127124 0.26272,0.273315 0.37925,0.438577 0.11654,0.165259 0.25425,0.377132 0.40998,0.639855 l 0.18751,0.306156 0.97673,1.559381 c 0.24366,0.379252 0.45235,0.688586 0.62714,0.932239 0.18433,0.233059 0.40574,0.460822 0.6674,0.684348 h 1.83588 v -0.479887 c -0.29133,0 -0.53816,-0.05508 -0.74156,-0.162083 a 1.9905423,1.9905423 0 0 1 -0.50955,-0.436458 13.617046,13.617046 0 0 1 -0.52438,-0.786047 l -0.99051,-1.557262 c -0.23306,-0.369718 -0.41845,-0.643033 -0.55404,-0.817829 a 2.4789084,2.4789084 0 0 0 -0.45129,-0.451289 c 1.00957,-0.203397 1.71935,-0.572054 2.12719,-1.107033 a 2.8295574,2.8295574 0 0 0 0.59748,-1.806212 c 0,-0.834779 -0.32098,-1.470396 -0.9619,-1.906854 -0.63137,-0.447051 -1.63142,-0.681171 -3.00011,-0.699179 -0.23306,-0.01059 -0.58265,-0.0159 -1.04877,-0.0159 z m 40.39879,0 c -0.51379,0 -1.27759,0.01059 -2.28821,0.02965 v 0.640916 l 1.04875,-0.05827 c -0.0287,0.291324 -0.0423,0.639855 -0.0423,1.04771 v 6.293673 c 0,0.495783 -0.0106,0.845372 -0.0297,1.048769 a 0.81888726,0.81888726 0 0 1 -0.24789,0.508495 c -0.14619,0.146191 -0.38878,0.224585 -0.72883,0.235177 v 0.478835 h 3.27766 v -0.641974 l -1.04665,0.05827 c 0.0287,-0.252128 0.0423,-0.635617 0.0423,-1.150468 v -2.826379 c 0.12713,0.01059 0.31993,0.01694 0.58266,0.01694 0.18432,0 0.31992,-0.0074 0.40678,-0.01694 0.13666,0.127124 0.26273,0.273315 0.37925,0.438577 0.11654,0.165259 0.25425,0.377132 0.40998,0.639855 l 0.18751,0.306156 0.97673,1.559381 c 0.24366,0.379252 0.45024,0.688586 0.62502,0.932239 0.18434,0.233059 0.40786,0.460822 0.67058,0.684348 h 1.83482 v -0.479887 c -0.29133,0 -0.53922,-0.05508 -0.74261,-0.162083 a 1.9916016,1.9916016 0 0 1 -0.5085,-0.436458 13.453904,13.453904 0 0 1 -0.5265,-0.786047 l -0.98839,-1.557262 c -0.23306,-0.369718 -0.41845,-0.643033 -0.55511,-0.817829 -0.13665,-0.174794 -0.28603,-0.325224 -0.45022,-0.451289 1.00957,-0.203397 1.71828,-0.572054 2.12614,-1.107033 a 2.828498,2.828498 0 0 0 0.59642,-1.806212 c 0,-0.834779 -0.31887,-1.470396 -0.95979,-1.906854 -0.63137,-0.447051 -1.63142,-0.681171 -3.00011,-0.699179 -0.23306,-0.01059 -0.58265,-0.0159 -1.04877,-0.0159 z m -119.421939,0.02861 -0.08686,3.072151 h 0.538156 c 0,-0.872915 0.127124,-1.508532 0.379252,-1.906853 0.261663,-0.407853 0.694942,-0.610192 1.296659,-0.610192 l 1.500058,-0.01694 -0.01377,7.386936 v 0.451288 c 0,0.445991 -0.0625,0.777572 -0.188567,0.990504 -0.11653,0.213992 -0.385608,0.330521 -0.802997,0.34959 v 0.47989 h 3.42386 v -0.640921 l -1.209792,0.05827 c 0.02859,-0.253187 0.04556,-0.635617 0.04556,-1.150468 l 0.01484,-7.938862 h 1.237335 c 0.494722,0 0.872914,0.09217 1.135637,0.276493 0.271196,0.174795 0.461882,0.447051 0.568878,0.815709 0.11653,0.359124 0.179032,0.844312 0.188566,1.456624 h 0.554046 l -0.08898,-3.072151 h -8.490791 z m 9.724949,0 v 0.641974 l 1.048768,-0.05827 c -0.02861,0.291324 -0.04237,0.638795 -0.04237,1.04665 v 6.294732 c 0,0.494723 -0.01059,0.845372 -0.02966,1.048769 a 0.81888726,0.81888726 0 0 1 -0.24789,0.508495 c -0.146193,0.146191 -0.388787,0.224585 -0.728842,0.234119 v 0.47989 h 7.517236 l 0.08686,-2.840151 h -0.494723 c 0,0.825245 -0.180092,1.408952 -0.540275,1.747949 -0.359124,0.330521 -0.878211,0.49896 -1.557263,0.508494 l -2.782945,0.04662 c 0.02861,-0.253188 0.04237,-0.633499 0.04237,-1.138815 v -3.334886 l 1.064659,-0.04343 0.452347,-0.01484 c 0.320988,0 0.567818,0.03391 0.742614,0.101697 a 0.65362671,0.65362671 0 0 1 0.407854,0.378193 c 0.08792,0.185388 0.130301,0.458704 0.130301,0.817828 h 0.479892 V 26.60664 h -0.638796 l 0.101698,1.254286 -2.739512,-0.01484 V 25.51549 c 0,-0.466119 0.02119,-0.806175 0.05933,-1.020165 a 0.76909723,0.76909723 0 0 1 0.290266,-0.508495 c 0.154667,-0.127124 0.407855,-0.195982 0.757444,-0.205517 l 1.253227,-0.02859 c 0.621845,-0.01907 1.101736,0.118649 1.442851,0.409973 0.34959,0.291325 0.523325,0.833719 0.523325,1.63036 h 0.48201 l -0.07415,-2.549886 h -7.007684 z m 18.208324,0 v 0.641974 l 1.048768,-0.05827 c -0.02861,0.291324 -0.04237,0.638795 -0.04237,1.04665 v 6.294732 c 0,0.494723 -0.01059,0.845372 -0.02965,1.048769 a 0.81888726,0.81888726 0 0 1 -0.24789,0.508495 c -0.146193,0.146191 -0.388787,0.224585 -0.728842,0.234119 v 0.47989 h 7.517236 l 0.08688,-2.840151 h -0.494722 c 0,0.825245 -0.180093,1.408952 -0.540275,1.747949 -0.359125,0.330521 -0.878212,0.49896 -1.557264,0.508494 l -2.782946,0.04662 c 0.02861,-0.253188 0.04237,-0.633499 0.04237,-1.138815 v -3.334886 l 1.064659,-0.04343 0.452348,-0.01484 c 0.320987,0 0.567819,0.03391 0.742614,0.101697 a 0.65362671,0.65362671 0 0 1 0.407854,0.378193 c 0.08792,0.185388 0.130302,0.458704 0.130302,0.817828 h 0.479891 v -3.061556 h -0.638804 l 0.101698,1.254286 -2.739512,-0.01484 v -2.330599 c 0,-0.466119 0.02119,-0.806175 0.05933,-1.020165 a 0.76909723,0.76909723 0 0 1 0.290266,-0.508495 c 0.154667,-0.127124 0.407855,-0.195982 0.757444,-0.205517 L 78.85,23.752713 c 0.621845,-0.01907 1.101736,0.118649 1.442851,0.409973 0.34959,0.291325 0.523325,0.833719 0.523325,1.63036 h 0.48201 l -0.07415,-2.549886 z m 9.134883,0 -0.08686,3.014945 h 0.494722 c 0,-0.815709 0.140895,-1.417426 0.421626,-1.806213 0.281791,-0.388785 0.71507,-0.591123 1.29772,-0.610192 l 3.714125,-0.06039 c -0.252129,0.30086 -0.564642,0.739435 -0.933299,1.311491 a 128.3492,128.3492 0 0 1 -4.994894,7.42825 l -0.175854,0.24895 v 0.669517 h 7.473802 l 0.08686,-2.985283 h -0.494722 c 0,0.786047 -0.209754,1.37929 -0.627143,1.77761 -0.407855,0.397261 -0.952367,0.600659 -1.631418,0.610193 l -3.538272,0.05933 c 0.30086,-0.271198 0.629262,-0.675874 0.988385,-1.209792 l 5.231133,-7.938864 V 23.24423 h -7.224852 z m 7.899666,0 v 0.641974 l 0.904696,-0.02861 c 0.07734,0.407856 0.338996,0.954486 0.786048,1.644131 l 2.533994,4.00545 -0.01377,1.66214 v 0.451289 c 0,0.445991 -0.06356,0.776512 -0.190686,0.990503 -0.11653,0.213992 -0.383489,0.330522 -0.800878,0.349591 v 0.47989 h 3.424919 v -0.640913 l -1.210851,0.05827 c 0.02965,-0.253188 0.04343,-0.635617 0.04343,-1.150468 a 29.244763,29.244763 0 0 1 -0.01484,-1.121864 c 0.01059,-0.533919 0.01907,-1.038176 0.02965,-1.514889 l 1.834816,-3.467294 c 0.360183,-0.659983 0.689645,-1.12928 0.991564,-1.41107 a 1.8326972,1.8326972 0 0 1 1.149415,-0.46718 v -0.48095 h -2.97046 v 0.641974 l 1.150468,-0.04343 c -0.184318,0.203393 -0.418437,0.572051 -0.699169,1.107029 l -0.305095,0.566759 a 181.7845,181.7845 0 0 0 -1.559382,2.971512 h -0.02966 A 40.83419,40.83419 0 0 1 94.690624,26.02612 l -0.453407,-0.712952 c -0.242594,-0.379252 -0.363361,-0.696001 -0.363361,-0.948129 0,-0.426924 0.38031,-0.640915 1.137755,-0.640915 V 23.24317 h -3.760737 z m 22.710617,0 v 0.641974 l 1.04877,-0.05827 c -0.0287,0.291324 -0.0423,0.638795 -0.0423,1.04665 v 6.294732 c 0,0.494723 -0.0106,0.845372 -0.0297,1.048769 a 0.81888726,0.81888726 0 0 1 -0.2479,0.508495 c -0.14619,0.146191 -0.38878,0.224585 -0.72884,0.234119 v 0.47989 h 7.51722 l 0.0868,-2.840151 h -0.49684 c 0,0.825245 -0.17797,1.408952 -0.53816,1.747949 -0.35912,0.330521 -0.87821,0.49896 -1.55725,0.508494 l -2.78295,0.04662 c 0.0287,-0.253188 0.0423,-0.633499 0.0423,-1.138815 v -3.334886 l 1.06466,-0.04343 0.45023,-0.01484 c 0.32099,0 0.56887,0.03391 0.74367,0.101697 a 0.65362671,0.65362671 0 0 1 0.4068,0.378193 c 0.088,0.185388 0.13242,0.458704 0.13242,0.817828 h 0.47989 V 26.60664 h -0.64092 l 0.10383,1.254286 -2.73951,-0.01484 V 25.51549 c 0,-0.466119 0.019,-0.806175 0.0571,-1.020165 a 0.77121595,0.77121595 0 0 1 0.29237,-0.508495 c 0.15574,-0.127124 0.40786,-0.195982 0.75745,-0.205517 l 1.25323,-0.02859 c 0.62184,-0.01907 1.10173,0.118649 1.44285,0.409973 0.34959,0.291325 0.52333,0.833719 0.52333,1.63036 h 0.47989 l -0.0732,-2.549886 z m 29.33375,0 v 0.641974 l 0.97461,-0.05827 -0.0158,7.982297 c 0,0.320987 -0.0616,0.593242 -0.18751,0.815709 -0.12712,0.222466 -0.38349,0.334759 -0.77229,0.334759 v 0.47989 h 2.66537 V 32.79862 l -1.04878,0.05827 c 0.019,-0.311452 0.0287,-0.792402 0.0287,-1.442852 l -0.0435,-6.233289 h 0.0148 l 6.32016,8.49291 h 0.69919 l 0.0297,-8.158151 v -0.508495 c 0,-0.292384 0.019,-0.525443 0.0583,-0.699179 0.0392,-0.173735 0.12712,-0.311452 0.26272,-0.407855 0.14513,-0.106995 0.36442,-0.166319 0.65575,-0.175854 v -0.48095 h -2.68019 v 0.641974 l 1.04877,-0.05827 a 10.646595,10.646595 0 0 0 -0.0445,1.04665 l -0.0148,6.673985 h -0.0148 l -6.2047,-8.304344 h -1.73206 z m 11.06398,0 v 0.641974 l 1.04878,-0.05827 c -0.0287,0.291324 -0.0423,0.638795 -0.0423,1.04665 v 6.294732 c 0,0.494723 -0.0106,0.845372 -0.0297,1.048769 a 0.81888726,0.81888726 0 0 1 -0.2479,0.508495 c -0.1462,0.146191 -0.38879,0.224585 -0.72884,0.234119 v 0.47989 h 7.51724 l 0.0868,-2.840151 h -0.49683 c 0,0.825245 -0.17904,1.408952 -0.53816,1.747949 -0.35912,0.330521 -0.87822,0.49896 -1.55727,0.508494 l -2.78294,0.04662 c 0.0287,-0.253188 0.0423,-0.633499 0.0423,-1.138815 v -3.334886 l 1.06361,-0.04343 0.45128,-0.01484 c 0.32099,0 0.56782,0.03391 0.74262,0.101697 a 0.6568048,0.6568048 0 0 1 0.40997,0.378193 c 0.0879,0.185388 0.1303,0.458704 0.1303,0.817828 h 0.47989 V 26.60664 h -0.64092 l 0.10382,1.254286 -2.73951,-0.01484 V 25.51549 c 0,-0.466119 0.0191,-0.806175 0.0572,-1.020165 a 0.77121595,0.77121595 0 0 1 0.29238,-0.508495 c 0.15467,-0.127124 0.40786,-0.195982 0.75745,-0.205517 l 1.25322,-0.02859 c 0.62184,-0.01907 1.10174,0.118649 1.44286,0.409973 0.34959,0.291325 0.52332,0.833719 0.52332,1.63036 h 0.47989 l -0.0732,-2.549886 z m 28.75639,0 v 0.641974 l 0.81784,-0.02861 c 0.0678,0.494722 0.27543,1.154706 0.62502,1.979949 l 3.30521,7.748178 h 0.40997 l 3.07216,-8.432526 c 0.18538,-0.525444 0.38984,-0.889864 0.61336,-1.093262 0.23307,-0.203397 0.56147,-0.31569 0.98839,-0.334759 v -0.480951 h -2.95562 v 0.641974 l 1.1208,-0.05827 c -0.0974,0.194923 -0.23729,0.554046 -0.42162,1.078431 l -0.33582,0.931179 -1.28076,3.597595 -0.19069,0.523326 -0.5371,1.560441 h -0.0297 c -0.15467,-0.417389 -0.42374,-1.059363 -0.80193,-1.923803 l -0.37926,-0.887746 a 104.74977,104.74977 0 0 1 -0.56675,-1.355983 c -0.19387,-0.494722 -0.339,-0.86338 -0.43646,-1.105974 l -0.37925,-0.932239 c -0.1356,-0.329462 -0.20446,-0.608074 -0.20446,-0.830541 0,-0.233059 0.0742,-0.407854 0.21929,-0.524384 0.15573,-0.126064 0.39303,-0.199159 0.71402,-0.219288 l 0.0148,-0.01377 v -0.479892 h -3.3815 z m 10.36164,0 v 0.641974 l 1.04876,-0.05827 c -0.0287,0.291324 -0.0423,0.638795 -0.0423,1.04665 v 6.294732 c 0,0.494723 -0.0106,0.845372 -0.0297,1.048769 a 0.81888726,0.81888726 0 0 1 -0.2479,0.508495 c -0.14619,0.146191 -0.38878,0.224585 -0.72883,0.234119 v 0.47989 h 7.51723 l 0.0868,-2.840151 h -0.49472 c 0,0.825245 -0.1801,1.408952 -0.54028,1.747949 -0.35913,0.330521 -0.87821,0.49896 -1.55726,0.508494 l -2.78295,0.04662 c 0.0287,-0.253188 0.0423,-0.633499 0.0423,-1.138815 v -3.334886 l 1.06466,-0.04343 0.45234,-0.01484 c 0.32099,0 0.56888,0.03391 0.74367,0.101697 a 0.65362671,0.65362671 0 0 1 0.4068,0.378193 c 0.0879,0.185388 0.1303,0.458704 0.1303,0.817828 h 0.48095 V 26.60664 h -0.63985 l 0.10168,1.254286 -2.73952,-0.01484 V 25.51549 c 0,-0.466119 0.0213,-0.806175 0.0593,-1.020165 a 0.76909723,0.76909723 0 0 1 0.29026,-0.508495 c 0.15573,-0.127124 0.40786,-0.195982 0.75745,-0.205517 l 1.25323,-0.02859 c 0.62184,-0.01907 1.10173,0.118649 1.44285,0.409973 0.34958,0.291325 0.52332,0.833719 0.52332,1.63036 h 0.48201 l -0.0742,-2.549886 z m -16.01651,0.349589 c 0.76804,0 1.43861,0.247891 2.01173,0.743673 0.57206,0.485188 1.01063,1.115509 1.31149,1.893082 0.30087,0.766977 0.45128,1.563619 0.45128,2.389921 a 5.5404663,5.5404663 0 0 1 -0.42268,2.140972 4.020281,4.020281 0 0 1 -1.22462,1.673792 c -0.53392,0.427984 -1.17906,0.641975 -1.93651,0.641975 -0.81571,0 -1.51066,-0.252129 -2.08377,-0.757445 a 4.7205197,4.7205197 0 0 1 -1.28077,-1.922743 6.7661487,6.7661487 0 0 1 -0.42162,-2.316826 c 0,-0.74791 0.13559,-1.466158 0.40785,-2.155802 a 4.0065093,4.0065093 0 0 1 1.23733,-1.673793 c 0.54346,-0.437518 1.19285,-0.656806 1.95029,-0.656806 z m -109.124938,0.18856 c 0.884568,0 1.538195,0.186448 1.966177,0.555106 0.426923,0.368658 0.640914,0.923764 0.640914,1.66108 0,1.56362 -0.989445,2.344369 -2.970452,2.344369 -0.136658,0 -0.34959,-0.0096 -0.641974,-0.02859 v -2.796723 c 0,-0.495782 0.01059,-0.841135 0.02966,-1.034997 a 0.76062233,0.76062233 0 0 1 0.247891,-0.494723 c 0.145132,-0.135598 0.388786,-0.204456 0.727782,-0.204456 z m 40.112768,0 c 0.94283,0 1.68014,0.205516 2.21407,0.613372 0.53392,0.407853 0.80087,1.047708 0.80087,1.921682 0,0.554047 -0.1356,1.038177 -0.40786,1.456625 a 2.6039132,2.6039132 0 0 1 -1.09114,0.948128 3.5276774,3.5276774 0 0 1 -1.51488,0.319929 c -0.3888,0 -0.70554,-0.01377 -0.94813,-0.04237 v -3.483185 c 0,-0.504256 0.009,-0.849608 0.0287,-1.033937 a 0.82630281,0.82630281 0 0 1 0.21929,-0.494723 c 0.13665,-0.135598 0.36971,-0.204456 0.69918,-0.204456 z m 17.83754,0 c 0.88457,0 1.54032,0.186448 1.9683,0.555106 0.42692,0.368658 0.64092,0.923764 0.64092,1.66108 0,1.56362 -0.99158,2.344369 -2.97258,2.344369 -0.13666,0 -0.34854,-0.0096 -0.63985,-0.02859 v -2.796723 c 0,-0.495782 0.0106,-0.841135 0.0287,-1.034997 0.0181,-0.193864 0.10066,-0.359124 0.24684,-0.494723 0.14513,-0.135598 0.38878,-0.204456 0.72778,-0.204456 z m 40.39879,0 c 0.88458,0 1.54032,0.186448 1.9683,0.555106 0.42692,0.368658 0.64092,0.923764 0.64092,1.66108 0,1.56362 -0.99157,2.344369 -2.97258,2.344369 -0.13665,0 -0.34853,-0.0096 -0.63985,-0.02859 v -2.796723 c 0,-0.495782 0.0106,-0.841135 0.0287,-1.034997 0.018,-0.193864 0.10066,-0.359124 0.24683,-0.494723 0.14513,-0.135598 0.38878,-0.204456 0.72778,-0.204456 z" />
  <path
     id="path4"
     fill="#f84141"
     overflow="visible"
     font-family="sans-serif"
     font-weight="400"
     color="#000000"
     d="m 15.023391,1.4022889 a 2.0223231,2.0223231 0 0 0 -0.538156,0.078393 c -0.794522,0.2150506 -1.571034,0.4809506 -2.325301,0.794522 v -0.00213 A 18.932928,18.932928 0 0 0 7.9288401,4.7170345 C 7.3885652,5.1301859 6.8768931,5.5782962 6.3821708,6.0497125 A 5.8095443,5.8095443 0 0 1 9.899255,7.719268 c 0.111232,0.1122924 0.21399,0.2298817 0.31569,0.3495896 0.05827,-0.045552 0.113351,-0.095342 0.171615,-0.1408952 A 14.888281,14.888281 0 0 1 15.540361,5.3833735 2.0223231,2.0223231 0 0 0 15.023391,1.4022889 Z M 1.0503989,15.285235 a 18.895851,18.895851 0 0 0 -0.38031114,2.002195 18.906444,18.906444 0 0 0 0,4.883662 c 0.10593619,0.810413 0.26484058,1.617647 0.47671314,2.413227 A 2.0223231,2.0223231 0 1 0 5.0547894,23.546145 14.874511,14.874511 0 0 1 4.5568891,19.730321 c 0,-0.641974 0.042374,-1.282888 0.1250047,-1.920626 0.010593,-0.07415 0.024365,-0.14831 0.036019,-0.221406 A 5.7947133,5.7947133 0 0 1 1.6362265,15.981236 5.7989508,5.7989508 0 0 1 1.0514584,15.285235 Z m 7.257693,-0.893042 a 3.5764081,3.5764081 0 0 1 -5.0828216,0 3.5774674,3.5774674 0 0 1 -0.00106,-5.0849405 3.5795861,3.5795861 0 0 1 5.0849404,0 3.5774674,3.5774674 0 0 1 -0.00106,5.0849405 z M 23.748301,1.4044076 a 2.0223231,2.0223231 0 0 0 -0.456584,3.9832033 c 0.623964,0.1684387 1.233096,0.3750144 1.82634,0.6218459 a 2.0223231,2.0223231 0 0 0 0.0022,0 14.852263,14.852263 0 0 1 3.325338,1.9206243 c 0.05933,0.045553 0.11547,0.095342 0.173736,0.143014 a 5.796832,5.796832 0 0 1 2.93439,-1.8665969 c 0.29658,-0.079452 0.595319,-0.1271235 0.893,-0.1589043 A 18.895851,18.895851 0 0 0 30.903236,4.7191532 18.903266,18.903266 0 0 0 24.345781,1.4828005 2.0223231,2.0223231 0 0 0 23.748301,1.4044076 Z M 37.778499,15.285235 a 5.8053068,5.8053068 0 0 1 -3.200335,2.207712 5.8243754,5.8243754 0 0 1 -0.46294,0.09958 c 0.01059,0.07415 0.02542,0.146192 0.03496,0.219288 a 14.87345,14.87345 0 0 1 -0.372896,5.735388 2.0223231,2.0223231 0 1 0 3.909048,1.038176 18.885256,18.885256 0 0 0 0.632441,-4.852941 c 0,-0.815709 -0.05297,-1.631418 -0.158906,-2.44183 a 18.948818,18.948818 0 0 0 -0.38137,-2.005373 z m -8.186754,-2.505392 a 3.5774674,3.5774674 0 0 1 2.542471,-4.4027109 3.5774674,3.5774674 0 0 1 4.404829,2.5414099 3.5795861,3.5795861 0 0 1 -2.54247,4.40377 3.5795861,3.5795861 0 0 1 -4.40483,-2.542469 z m 1.71193,16.873527 a 2.0223231,2.0223231 0 0 0 -1.401536,0.612311 14.827897,14.827897 0 0 1 -4.779845,3.190801 c -0.06992,0.0286 -0.141954,0.05297 -0.211872,0.0805 a 5.7936539,5.7936539 0 0 1 0.150429,3.47471 5.7947133,5.7947133 0 0 1 -0.310392,0.851728 18.927631,18.927631 0 0 0 1.925921,-0.672696 18.906444,18.906444 0 0 0 6.078622,-4.059478 2.0223231,2.0223231 0 0 0 -1.451327,-3.477886 z m -23.8250639,0.0042 a 2.0223231,2.0223231 0 0 0 -1.399418,3.473649 18.904325,18.904325 0 0 0 3.8857411,2.97575 c 0.7065948,0.407855 1.4407328,0.770156 2.1949998,1.083728 0.627143,0.260604 1.271235,0.479891 1.925921,0.672696 a 5.8031882,5.8031882 0 0 1 -0.312512,-3.875149 c 0.04237,-0.155726 0.09428,-0.305097 0.147252,-0.453408 -0.06885,-0.02755 -0.138777,-0.05085 -0.206575,-0.0784 A 14.888281,14.888281 0 0 1 8.9320564,30.265681 2.0223231,2.0223231 0 0 0 7.4796703,29.657607 Z m 12.8680779,2.3677 a 3.5795861,3.5795861 0 0 1 2.542469,4.404829 3.5774674,3.5774674 0 0 1 -4.402711,2.540352 3.5764081,3.5764081 0 0 1 -2.54247,-4.401653 3.5774674,3.5774674 0 0 1 4.402712,-2.542469 z"
     style="line-height:normal;text-indent:0;text-align:start;text-decoration:none;text-decoration-line:none;text-decoration-style:solid;text-decoration-color:#000000;text-transform:none;white-space:normal;isolation:auto;mix-blend-mode:normal;solid-color:#000000;solid-opacity:1;stroke-width:1.05936" />
</svg>
